<?xml version="1.0" encoding="UTF-8" standalone="no"?><!DOCTYPE svg PUBLIC "-//W3C//DTD SVG 1.1//EN" "http://www.w3.org/Graphics/SVG/1.1/DTD/svg11.dtd"><svg width="100%" height="100%" viewBox="0 0 8889 5000" version="1.1" xmlns="http://www.w3.org/2000/svg" xmlns:xlink="http://www.w3.org/1999/xlink" xml:space="preserve" xmlns:serif="http://www.serif.com/" style="fill-rule:evenodd;clip-rule:evenodd;stroke-linecap:round;stroke-linejoin:round;stroke-miterlimit:1.5;"><g><rect x="37.738" y="1756.13" width="8794.43" height="1899.83" style="fill:#fff;fill-rule:nonzero;"/><path d="M838.032,2414.24l-567.41,-0l0,755.016l-29.604,-0l0,-1401.43l597.014,-0l-0,31.328l-567.41,0l0,584.798l567.41,0l-0,30.285Z" style="fill-rule:nonzero;"/><path d="M838.032,2414.24l-567.41,-0l0,755.016l-29.604,-0l0,-1401.43l597.014,-0l-0,31.328l-567.41,0l0,584.798l567.41,0l-0,30.285Zm-11.111,-11.112l-567.41,0l0,755.017c0,-0 -7.382,-0 -7.382,-0c0,-0.001 0,-1379.2 0,-1379.2l574.792,-0c-0,-0 -0,9.106 -0,9.106c-0,0 -567.41,0 -567.41,0l0,607.02l567.41,0l-0,8.062Z"/><path d="M1846.3,3182.84l-597.013,0l-0,-1415l597.013,-0l0,31.328l-567.409,0l-0,584.798l421.363,0l0,30.285l-421.363,-0l-0,740.396l567.409,-0l0,28.195Z" style="fill-rule:nonzero;"/><path d="M1846.3,3182.84l-597.013,0l-0,-1415l597.013,-0l0,31.328l-567.409,0l-0,584.798l421.363,0l0,30.285l-421.363,-0l-0,740.396l567.409,-0l0,28.195Zm-11.111,-11.111l-574.791,0c0,0 0,-1392.78 0,-1392.78c0,-0 574.791,-0 574.791,-0c0,-0 0,9.106 0,9.106c0,0 -567.409,0 -567.409,0l-0,607.02l421.363,0c-0,0 -0,8.062 -0,8.062c-0,0 -421.363,0 -421.363,0l-0,762.619l567.409,-0l0,5.973Z"/><path d="M2854.58,3182.84l-597.013,0l-0,-1399.34l29.604,-0l-0,1371.14l567.409,-0l-0,28.195Z" style="fill-rule:nonzero;"/><path d="M2854.58,3182.84l-597.013,0l-0,-1399.34l29.604,-0l-0,1371.14l567.409,-0l-0,28.195Zm-11.111,-11.111l-574.791,0c-0,0 -0,-1377.12 -0,-1377.12c-0,0 7.381,0 7.381,0l0,1371.14l567.41,-0l-0,5.973Z"/><path d="M3862.85,3182.84l-597.014,0l0,-1415l597.014,-0l-0,31.328l-567.41,0l0,584.798l421.363,0l0,30.285l-421.363,-0l0,740.396l567.41,-0l-0,28.195Z" style="fill-rule:nonzero;"/><path d="M3862.85,3182.84l-597.014,0l0,-1415l597.014,-0l-0,31.328l-567.41,0l0,584.798l421.363,0l0,30.285l-421.363,-0l0,740.396l567.41,-0l-0,28.195Zm-11.111,-11.111l-574.792,0c0,-125.144 0,-1267.64 0,-1392.78c0,-0 574.792,-0 574.792,-0c-0.001,-0 -0.001,9.106 -0.001,9.106c0.001,0 -567.409,0 -567.409,0l0,607.02l421.363,0c0,0 0,8.062 0,8.062c0,0 -421.363,0 -421.363,0l0,762.619l567.41,-0l-0,5.973Z"/><path d="M5030.98,2168.84c-0,216.515 -94.404,345.658 -283.212,387.429l282.225,606.728l-26.644,11.487l-285.185,-611.949c-26.972,4.177 -54.931,6.265 -83.877,6.265l-330.578,0l-0,600.463l-29.604,-0l-0,-1401.43l360.182,-0c100.653,-0 185.189,24.714 253.607,74.144c95.39,68.922 143.086,177.876 143.086,326.86Zm-28.617,0c-0,-137.845 -43.42,-238.096 -130.258,-300.753c-63.155,-45.949 -142.428,-68.923 -237.818,-68.923l-330.578,0l-0,738.308l330.578,-0c96.706,-0 175.979,-22.278 237.818,-66.834c86.838,-61.265 130.258,-161.864 130.258,-301.798Z" style="fill-rule:nonzero;"/><path d="M5030.98,2168.84c-0,216.515 -94.404,345.658 -283.212,387.429l282.225,606.728l-26.644,11.487l-285.185,-611.949c-26.972,4.177 -54.931,6.265 -83.877,6.265l-330.578,0l-0,600.463l-29.604,-0l-0,-1401.43l360.182,-0c100.653,-0 185.189,24.714 253.607,74.144c95.39,68.922 143.086,177.876 143.086,326.86Zm-11.111,0c-0,105.482 -22.67,189.77 -68.662,252.686c-45.71,62.53 -114.419,103.669 -205.839,123.894l-13.51,2.989l283.239,608.91c0.001,0 -6.236,2.689 -6.236,2.689c0,-0 -284.15,-609.731 -284.15,-609.731l-8.247,1.277c-26.426,4.093 -53.818,6.135 -82.177,6.135l-341.689,0l-0,600.463c-0,-0 -7.382,-0 -7.382,-0c0,-0.001 0,-1379.2 0,-1379.2c0,-0 349.071,-0 349.071,-0c98.049,-0 180.452,23.889 247.1,72.039c92.691,66.973 138.482,173.086 138.482,317.854Zm-6.395,0c-0,-142.086 -45.348,-245.165 -134.854,-309.754c-64.904,-47.213 -146.307,-71.033 -244.333,-71.033l-341.689,0l-0,760.53l341.689,-0c99.351,-0 180.726,-23.133 244.266,-68.896c89.505,-63.169 134.921,-166.593 134.921,-310.847Zm-11.111,0c-0,-137.845 -43.42,-238.096 -130.258,-300.753c-63.155,-45.949 -142.428,-68.923 -237.818,-68.923l-330.578,0l-0,738.308l330.578,-0c96.706,-0 175.979,-22.278 237.818,-66.834c86.838,-61.265 130.258,-161.864 130.258,-301.798Z"/><path d="M6025.44,2414.24l-567.409,-0l-0,755.016l-29.604,-0l-0,-1401.43l597.013,-0l0,31.328l-567.409,0l-0,584.798l567.409,0l0,30.285Z" style="fill-rule:nonzero;"/><path d="M6025.44,2414.24l-567.409,-0l-0,755.016l-29.604,-0l-0,-1401.43l597.013,-0l0,31.328l-567.409,0l-0,584.798l567.409,0l0,30.285Zm-11.111,-11.112l-567.409,0l-0,755.017c-0,-0 -7.382,-0 -7.382,-0c-0,-124.45 -0,-1254.76 -0,-1379.2c-0,-0 574.791,-0 574.791,-0c0,-0 0,9.106 0,9.106l-567.409,0l-0,607.02l567.409,0l0,8.062Z"/><path d="M7193.57,2168.84c0,216.515 -94.404,345.658 -283.211,387.429l282.224,606.728l-26.643,11.487l-285.185,-611.949c-26.973,4.177 -54.932,6.265 -83.878,6.265l-330.578,0l0,600.463l-29.604,-0l0,-1401.43l360.182,-0c100.654,-0 185.189,24.714 253.607,74.144c95.391,68.922 143.086,177.876 143.086,326.86Zm-28.617,0c0,-137.845 -43.419,-238.096 -130.257,-300.753c-63.156,-45.949 -142.428,-68.923 -237.819,-68.923l-330.578,0l0,738.308l330.578,-0c96.706,-0 175.979,-22.278 237.819,-66.834c86.838,-61.265 130.257,-161.864 130.257,-301.798Z" style="fill-rule:nonzero;"/><path d="M7193.57,2168.84c0,216.515 -94.404,345.658 -283.211,387.429l282.224,606.728l-26.643,11.487l-285.185,-611.949c-26.973,4.177 -54.932,6.265 -83.878,6.265l-330.578,0l0,600.463l-29.604,-0l0,-1401.43l360.182,-0c100.654,-0 185.189,24.714 253.607,74.144c95.391,68.922 143.086,177.876 143.086,326.86Zm-11.111,0c0,105.482 -22.67,189.77 -68.662,252.686c-45.709,62.53 -114.419,103.669 -205.838,123.894l-13.51,2.989l283.239,608.91c0,0 -6.236,2.689 -6.236,2.689c-0,-0 -284.151,-609.731 -284.151,-609.731l-8.247,1.277c-26.425,4.093 -53.818,6.135 -82.177,6.135l-341.689,0l0,600.463c0,-0 -7.381,-0 -7.381,-0c-0,-0.001 -0,-1248.06 -0,-1379.2c-0,-0 349.07,-0 349.07,-0c98.049,-0 180.452,23.889 247.1,72.039c92.692,66.973 138.482,173.086 138.482,317.854Zm-6.395,0c0,-142.086 -45.348,-245.165 -134.854,-309.754c-64.904,-47.213 -146.307,-71.033 -244.333,-71.033l-341.689,0l0,760.53l341.689,-0c99.352,-0 180.727,-23.133 244.267,-68.896c89.505,-63.169 134.92,-166.593 134.92,-310.847Zm-11.111,0c0,-137.845 -43.419,-238.096 -130.257,-300.753c-63.156,-45.949 -142.428,-68.923 -237.819,-68.923l-330.578,0l0,738.308l330.578,-0c96.706,-0 175.979,-22.278 237.819,-66.834c86.838,-61.265 130.257,-161.864 130.257,-301.798Z"/><path d="M8188.03,3182.84l-597.014,0l0,-1415l597.014,-0l-0,31.328l-567.41,0l0,584.798l421.363,0l0,30.285l-421.363,-0l0,740.396l567.41,-0l-0,28.195Z" style="fill-rule:nonzero;"/><path d="M8188.03,3182.84l-597.014,0l0,-1415l597.014,-0l-0,31.328l-567.41,0l0,584.798l421.363,0l0,30.285l-421.363,-0l0,740.396l567.41,-0l-0,28.195Zm-11.111,-11.111l-574.792,0c0,0 0,-1392.78 0,-1392.78c0,-0 574.792,-0 574.792,-0c-0,-0 -0,9.106 -0,9.106c-0,0 -567.41,0 -567.41,0l0,607.02l421.363,0c0,0 0,8.062 0,8.062c0,0 -421.363,0 -421.363,0l0,762.619l567.41,-0l-0,5.973Z"/><rect x="8599.28" y="1783.5" width="29.604" height="1385.76" style="fill-rule:nonzero;"/><path d="M8628.89,3169.26l-29.604,-0l-0,-1385.76l29.604,-0l-0,1385.76Zm-11.111,-11.111l-7.382,-0c0,-123.642 0,-1239.9 0,-1363.54c0,0 7.382,0 7.382,0l-0,1363.54Z"/></g><g><rect x="206.061" y="2127.8" width="8496.97" height="704.52" style="fill:#fff;fill-rule:nonzero;"/><path d="M228.737,2428.81c1.617,0 2.933,-0.165 3.945,-0.497c9.072,-2.65 18.486,-4.804 28.241,-6.461c9.754,-1.657 19.168,-3.811 28.24,-6.462c1.013,-0.331 2.49,-0.497 4.431,-0.497c2.265,0 3.574,1.16 3.926,3.48c0.916,2.982 -0.004,5.136 -2.761,6.461c-1.378,0.663 -3.403,1.326 -6.076,1.988c-5.345,1.326 -10.588,2.485 -15.729,3.48c-5.141,0.994 -10.384,2.153 -15.729,3.479c-4.656,0.994 -9.533,1.822 -14.632,2.485c-5.099,0.663 -9.976,1.491 -14.632,2.485c-3.685,0.994 -5.9,3.148 -6.644,6.462l-13.844,40.26l-24.907,70.083l-25.474,74.556c-1.11,3.645 -2.926,9.029 -5.447,16.153c-2.522,7.125 -5.275,14.166 -8.261,21.125c-2.986,6.958 -6.331,12.923 -10.036,17.893c-3.704,4.97 -7.315,7.29 -10.832,6.959c-1.899,-0.332 -3.401,-1.243 -4.506,-2.734c-1.105,-1.491 -1.208,-3.231 -0.308,-5.219l1.834,-2.982c6.059,-6.959 10.645,-14.414 13.757,-22.367c3.112,-7.953 5.982,-15.905 8.608,-23.858c5.086,-14.58 9.999,-29.077 14.739,-43.491c4.741,-14.414 9.675,-29.077 14.802,-43.988c5.212,-15.574 10.402,-30.982 15.571,-46.225c5.17,-15.242 10.36,-30.651 15.571,-46.224c0.408,-0.663 0.675,-1.492 0.801,-2.486c0.126,-0.994 0.435,-2.153 0.927,-3.479c-2.223,-0.331 -4.266,-0.166 -6.13,0.497c-1.863,0.663 -3.625,1.16 -5.285,1.491c-3.319,0.663 -5.788,0.994 -7.406,0.994c-2.588,0 -4.241,-0.994 -4.96,-2.982c-0.718,-1.988 -0.164,-3.811 1.664,-5.467c1.828,-1.657 3.878,-3.148 6.149,-4.474c2.271,-1.325 4.638,-1.491 7.1,-0.497c1.858,0.663 3.728,0.58 5.613,-0.248c1.885,-0.829 3.678,-1.574 5.38,-2.237c0.689,-0.331 1.504,-1.657 2.445,-3.976c2.459,-6.627 4.735,-13.089 6.828,-19.385c2.093,-6.296 4.207,-12.757 6.342,-19.384c4.803,-14.912 9.991,-29.657 15.561,-44.237c5.571,-14.58 11.243,-29.325 17.018,-44.237c3.723,-8.946 7.295,-17.976 10.716,-27.088c3.421,-9.113 7.155,-18.142 11.202,-27.089c3.555,-7.621 7.262,-15.16 11.12,-22.615c3.858,-7.456 7.888,-14.994 12.09,-22.616c2.488,-4.307 5.117,-8.449 7.886,-12.426c2.769,-3.976 5.7,-7.952 8.793,-11.928c1.589,-2.32 3.662,-4.64 6.221,-6.959c2.518,-1.988 4.796,-2.734 6.836,-2.237c2.04,0.497 3.377,2.071 4.011,4.722c0.437,1.657 0.611,3.479 0.52,5.468c-0.09,1.988 -0.079,3.81 0.034,5.467c0.059,4.639 -0.438,9.195 -1.491,13.669c-1.053,4.473 -2.359,9.029 -3.918,13.668c-7.178,20.876 -14.891,41.503 -23.139,61.882c-8.247,20.378 -17.515,40.508 -27.803,60.39c-4.778,9.61 -10.059,18.722 -15.844,27.337c-5.784,8.616 -11.509,17.397 -17.173,26.343c-1.547,1.989 -2.942,4.06 -4.186,6.213c-1.244,2.154 -2.801,4.225 -4.671,6.213c-3.051,3.645 -5.559,8.119 -7.526,13.42c-1.967,5.302 -1.824,9.279 0.428,11.929Zm99.17,-251.289c-0.145,0.063 -0.295,0.181 -0.47,0.273c-0.387,0.203 -0.781,0.465 -1.239,0.824c-2.116,1.938 -3.848,3.867 -5.176,5.806c-0.064,0.092 -0.13,0.183 -0.199,0.271c-3.031,3.898 -5.905,7.796 -8.619,11.694c-2.671,3.835 -5.207,7.829 -7.607,11.982c-4.169,7.561 -8.167,15.04 -11.994,22.437c-3.818,7.378 -7.486,14.838 -11.005,22.38c-3.992,8.826 -7.675,17.734 -11.05,26.723c-3.435,9.152 -7.022,18.22 -10.761,27.205c-5.763,14.882 -11.424,29.599 -16.984,44.151c-5.536,14.488 -10.69,29.14 -15.463,43.957c-2.141,6.644 -4.26,13.122 -6.358,19.434c-2.113,6.354 -4.41,12.875 -6.891,19.564c-0.019,0.053 -0.04,0.105 -0.061,0.157c-1.739,4.286 -3.912,6.282 -5.186,6.894c-0.128,0.062 -0.259,0.118 -0.391,0.17c-1.581,0.615 -3.243,1.306 -4.988,2.071c0.548,0.036 1.103,0.096 1.666,0.18c1.656,0.247 3.112,1.227 3.963,2.668c0.852,1.442 1.009,3.19 0.426,4.759c-0.318,0.859 -0.542,1.603 -0.624,2.247c-0.199,1.575 -0.628,2.917 -1.205,4.031c-5.159,15.417 -10.298,30.671 -15.416,45.764c-5.167,15.235 -10.355,30.636 -15.564,46.203c-0.005,0.014 -0.01,0.029 -0.015,0.043c-5.119,14.888 -10.045,29.527 -14.778,43.918c-4.747,14.431 -9.665,28.945 -14.756,43.542c-2.654,8.032 -5.552,16.064 -8.695,24.095c-3.285,8.394 -8.09,16.278 -14.436,23.639l-1.19,1.935c0.125,0.077 0.265,0.136 0.422,0.18c0.754,-0.02 1.465,-0.493 2.254,-1.112c1.121,-0.881 2.233,-2.108 3.377,-3.643c3.469,-4.654 6.588,-10.248 9.384,-16.764c2.938,-6.848 5.648,-13.777 8.13,-20.787c2.485,-7.021 4.275,-12.326 5.369,-15.918c0.018,-0.06 0.037,-0.12 0.057,-0.179l25.475,-74.556l24.92,-70.12c0,0 13.745,-39.971 13.731,-39.916c1.213,-5.024 4.438,-8.49 9.914,-10.151c-0.512,-0.308 -0.976,-0.699 -1.371,-1.165c-3.305,-3.889 -4.289,-9.679 -1.403,-17.458c2.208,-5.952 5.05,-10.961 8.475,-15.053c0.069,-0.083 0.14,-0.163 0.214,-0.241c1.561,-1.66 2.867,-3.386 3.906,-5.185c1.21,-2.095 2.55,-4.12 4.022,-6.072l-0.231,-0.076c-2.468,-0.869 -3.994,-3.343 -3.665,-5.938c0.253,-1.992 0.698,-3.984 1.34,-5.975c-0,-0 -0,-0 -0,-0c0.552,-1.716 1.337,-3.946 2.355,-6.69c5.896,-15.894 11.701,-31.705 17.414,-47.432c5.733,-15.782 11.72,-31.647 17.961,-47.595c0.008,-0.022 0.017,-0.044 0.026,-0.065c1.894,-4.667 4.682,-11.251 8.364,-19.752c3.708,-8.558 7.845,-17.283 12.414,-26.177c4.566,-8.887 9.14,-17.187 13.721,-24.901c4.956,-8.345 9.493,-14.088 13.45,-17.354c1.508,-1.244 3.56,-1.604 5.402,-0.948l0.149,0.059l0.059,-3.528c0.063,-1.381 -0.038,-2.648 -0.341,-3.798c-0.011,-0.041 -0.022,-0.083 -0.032,-0.124c-0.042,-0.177 -0.125,-0.405 -0.196,-0.583Zm-131.993,267.072c-1.441,0.497 -2.808,0.877 -4.104,1.136c-1.662,0.332 -3.073,0.579 -4.233,0.726c1.106,-0.865 2.296,-1.667 3.567,-2.408c0.71,-0.415 1.451,-0.455 2.22,-0.144c0.071,0.028 0.142,0.055 0.213,0.081c0.778,0.277 1.557,0.481 2.337,0.609Zm45.419,-61.51c19.158,-31.148 36.083,-62.544 50.775,-94.189c14.692,-31.645 26.279,-63.042 34.76,-94.189c0.085,-0.663 0.077,-1.243 -0.022,-1.74c-0.098,-0.497 -0.246,-1.243 -0.444,-2.237c-3.614,2.983 -7.683,8.284 -12.209,15.906c-4.526,7.621 -9.045,15.822 -13.556,24.603c-4.512,8.781 -8.597,17.396 -12.258,25.846c-3.66,8.45 -6.432,14.994 -8.315,19.633c-6.224,15.905 -12.195,31.728 -17.912,47.468c-5.718,15.739 -11.527,31.562 -17.428,47.467c-0.983,2.651 -1.742,4.805 -2.275,6.461c-0.534,1.657 -0.906,3.314 -1.116,4.971Z"/><path d="M241.333,2383.08c19.158,-31.148 36.083,-62.544 50.775,-94.189c14.692,-31.645 26.279,-63.042 34.76,-94.189c0.085,-0.663 0.077,-1.243 -0.022,-1.74c-0.098,-0.497 -0.246,-1.243 -0.444,-2.237c-3.614,2.983 -7.683,8.284 -12.209,15.906c-4.526,7.621 -9.045,15.822 -13.556,24.603c-4.512,8.781 -8.597,17.396 -12.258,25.846c-3.66,8.45 -6.432,14.994 -8.315,19.633c-6.224,15.905 -12.195,31.728 -17.912,47.468c-5.718,15.739 -11.527,31.562 -17.428,47.467c-0.983,2.651 -1.742,4.805 -2.275,6.461c-0.534,1.657 -0.906,3.314 -1.116,4.971Zm-12.596,45.727c1.617,0 2.933,-0.165 3.945,-0.497c9.072,-2.65 18.486,-4.804 28.241,-6.461c9.754,-1.657 19.168,-3.811 28.24,-6.462c1.013,-0.331 2.49,-0.497 4.431,-0.497c2.265,0 3.574,1.16 3.926,3.48c0.916,2.982 -0.004,5.136 -2.761,6.461c-1.378,0.663 -3.403,1.326 -6.076,1.988c-5.345,1.326 -10.588,2.485 -15.729,3.48c-5.141,0.994 -10.384,2.153 -15.729,3.479c-4.656,0.994 -9.533,1.822 -14.632,2.485c-5.099,0.663 -9.976,1.491 -14.632,2.485c-3.685,0.994 -5.9,3.148 -6.644,6.462l-13.844,40.26l-24.907,70.083l-25.474,74.556c-1.11,3.645 -2.926,9.029 -5.447,16.153c-2.522,7.125 -5.275,14.166 -8.261,21.125c-2.986,6.958 -6.331,12.923 -10.036,17.893c-3.704,4.97 -7.315,7.29 -10.832,6.959c-1.899,-0.332 -3.401,-1.243 -4.506,-2.734c-1.105,-1.491 -1.208,-3.231 -0.308,-5.219l1.834,-2.982c6.059,-6.959 10.645,-14.414 13.757,-22.367c3.112,-7.953 5.982,-15.905 8.608,-23.858c5.086,-14.58 9.999,-29.077 14.739,-43.491c4.741,-14.414 9.675,-29.077 14.802,-43.988c5.212,-15.574 10.402,-30.982 15.571,-46.225c5.17,-15.242 10.36,-30.651 15.571,-46.224c0.408,-0.663 0.675,-1.492 0.801,-2.486c0.126,-0.994 0.435,-2.153 0.927,-3.479c-2.223,-0.331 -4.266,-0.166 -6.13,0.497c-1.863,0.663 -3.625,1.16 -5.285,1.491c-3.319,0.663 -5.788,0.994 -7.406,0.994c-2.588,0 -4.241,-0.994 -4.96,-2.982c-0.718,-1.988 -0.164,-3.811 1.664,-5.467c1.828,-1.657 3.878,-3.148 6.149,-4.474c2.271,-1.325 4.638,-1.491 7.1,-0.497c1.858,0.663 3.728,0.58 5.613,-0.248c1.885,-0.829 3.678,-1.574 5.38,-2.237c0.689,-0.331 1.504,-1.657 2.445,-3.976c2.459,-6.627 4.735,-13.089 6.828,-19.385c2.093,-6.296 4.207,-12.757 6.342,-19.384c4.803,-14.912 9.991,-29.657 15.561,-44.237c5.571,-14.58 11.243,-29.325 17.018,-44.237c3.723,-8.946 7.295,-17.976 10.716,-27.088c3.421,-9.113 7.155,-18.142 11.202,-27.089c3.555,-7.621 7.262,-15.16 11.12,-22.615c3.858,-7.456 7.888,-14.994 12.09,-22.616c2.488,-4.307 5.117,-8.449 7.886,-12.426c2.769,-3.976 5.7,-7.952 8.793,-11.928c1.589,-2.32 3.662,-4.64 6.221,-6.959c2.518,-1.988 4.796,-2.734 6.836,-2.237c2.04,0.497 3.377,2.071 4.011,4.722c0.437,1.657 0.611,3.479 0.52,5.468c-0.09,1.988 -0.079,3.81 0.034,5.467c0.059,4.639 -0.438,9.195 -1.491,13.669c-1.053,4.473 -2.359,9.029 -3.918,13.668c-7.178,20.876 -14.891,41.503 -23.139,61.882c-8.247,20.378 -17.515,40.508 -27.803,60.39c-4.778,9.61 -10.059,18.722 -15.844,27.337c-5.784,8.616 -11.509,17.397 -17.173,26.343c-1.547,1.989 -2.942,4.06 -4.186,6.213c-1.244,2.154 -2.801,4.225 -4.671,6.213c-3.051,3.645 -5.559,8.119 -7.526,13.42c-1.967,5.302 -1.824,9.279 0.428,11.929Z" style="fill-rule:nonzero;"/><path d="M1251.43,2466.09c1.123,-6.295 3.089,-13.502 5.898,-21.621c2.81,-8.118 6.227,-16.568 10.253,-25.349c4.026,-8.781 8.598,-17.396 13.714,-25.846c5.116,-8.45 10.423,-16.485 15.919,-24.106c3.093,-3.977 6.176,-7.87 9.247,-11.681c3.072,-3.81 6.134,-7.538 9.184,-11.183c1.181,-1.657 2.412,-3.065 3.691,-4.225c1.28,-1.16 2.651,-2.402 4.113,-3.728c1.828,-1.657 3.776,-2.982 5.843,-3.976c6.16,-2.651 9.952,-0.663 11.376,5.964c0.508,3.645 0.067,7.125 -1.324,10.438c-0.857,1.657 -1.644,3.397 -2.361,5.219c-0.716,1.823 -1.503,3.562 -2.361,5.219c-9.711,17.893 -21.921,33.799 -36.629,47.716c-1.828,1.657 -3.807,3.231 -5.937,4.722c-2.131,1.491 -4.272,3.065 -6.423,4.722c-2.475,1.656 -4.001,3.479 -4.576,5.467c-2.782,6.627 -5.413,13.337 -7.893,20.13c-2.479,6.793 -4.484,13.669 -6.014,20.627c-0.252,1.988 -0.424,3.977 -0.514,5.965c-0.091,1.988 -0.262,3.976 -0.514,5.964l-0.379,2.983c1.185,5.964 4.653,7.952 10.406,5.964c3.685,-0.994 7.11,-2.485 10.274,-4.473c3.164,-1.989 6.328,-3.977 9.492,-5.965c3.165,-1.988 6.188,-4.142 9.071,-6.461c6.046,-4.308 11.801,-8.864 17.264,-13.669c5.463,-4.805 10.936,-9.692 16.42,-14.663c4.063,-3.976 8.208,-7.952 12.433,-11.929c4.225,-3.976 8.349,-7.787 12.37,-11.432c1.097,-0.994 3.066,-2.485 5.906,-4.473c2.391,-0.994 4.29,-0.663 5.698,0.994c2.055,1.657 2.105,3.811 0.151,6.462c-1.547,1.988 -2.868,3.479 -3.965,4.473c-4.795,4.639 -9.477,9.03 -14.047,13.172c-4.57,4.142 -9.252,8.532 -14.047,13.171c-8.084,7.621 -16.289,14.911 -24.614,21.87c-8.324,6.959 -17.05,13.254 -26.177,18.887c-2.109,1.326 -4.208,2.568 -6.296,3.728c-2.089,1.16 -4.328,2.237 -6.719,3.231c-7.904,3.645 -14.305,3.728 -19.202,0.249c-4.897,-3.48 -7.917,-8.367 -9.059,-14.663l-0.51,-7.456c-0.114,-1.657 -0.055,-3.396 0.176,-5.219c0.232,-1.822 0.452,-3.562 0.662,-5.219Zm58.943,-104.6c-2.895,3.594 -5.799,7.266 -8.739,11.048c-5.381,7.467 -10.576,15.339 -15.587,23.614c-5.005,8.266 -9.477,16.693 -13.415,25.284c-3.947,8.608 -7.299,16.891 -10.054,24.85c-2.68,7.746 -4.572,14.627 -5.654,20.647l-0.644,5.076c-0.184,1.445 -0.236,2.825 -0.146,4.14c0,0 0.488,7.128 0.495,7.166c0.906,4.611 3.127,8.229 6.75,10.803c3.488,2.478 8.027,1.831 13.657,-0.765c0.064,-0.029 0.129,-0.058 0.194,-0.085c2.19,-0.91 4.242,-1.895 6.155,-2.958c2.002,-1.112 4.015,-2.304 6.038,-3.575c0.012,-0.007 0.025,-0.015 0.038,-0.023c8.902,-5.494 17.412,-11.635 25.531,-18.423c1.275,-1.065 2.546,-2.138 3.815,-3.222c-3.382,2.727 -6.859,5.364 -10.42,7.902c-3.026,2.43 -6.198,4.687 -9.516,6.772c-3.164,1.988 -6.328,3.976 -9.492,5.965c-3.598,2.261 -7.489,3.963 -11.599,5.083c-4.698,1.579 -8.462,1.138 -11.31,-0.494c-2.886,-1.655 -5.19,-4.739 -6.176,-9.702c-0.116,-0.587 -0.137,-1.188 -0.062,-1.782c0,0 0.378,-2.982 0.378,-2.982c0.234,-1.839 0.392,-3.678 0.476,-5.518c0,0 0,0 0,0c0.097,-2.137 0.281,-4.274 0.553,-6.411c0.021,-0.166 0.049,-0.33 0.085,-0.494c1.583,-7.198 3.656,-14.312 6.221,-21.339c2.479,-6.79 5.107,-13.498 7.866,-20.069c0.92,-2.899 3,-5.7 6.558,-8.122c2.178,-1.674 4.345,-3.265 6.501,-4.775c1.88,-1.315 3.63,-2.701 5.275,-4.182c-0.547,-0.116 -1.083,-0.318 -1.588,-0.606c-2.162,-1.233 -3.24,-3.753 -2.639,-6.168c0.8,-3.212 1.855,-5.913 3.116,-8.122c-0,0 -0,0 -0,0c1,-1.752 1.912,-3.425 2.737,-5.018c0.047,-0.091 0.096,-0.18 0.148,-0.268c5.57,-9.45 10.389,-17.198 14.454,-23.247Zm21.898,-16.753c0.347,-2.617 1.043,-5.217 2.424,-5.028l-0.075,-0.179c-0.141,-0.308 -0.148,-0.652 -0.413,-0.718c-0.728,-0.181 -1.567,0.17 -2.681,0.654c-1.536,0.76 -2.982,1.765 -4.346,3.001l-0.68,0.617c-0.235,1.014 -0.182,2.097 0.189,3.122c0.142,0.391 0.324,0.758 0.543,1.097c0.076,-0.391 0.091,-0.776 0.033,-1.158l1.37,1.177c-3.056,3.042 -6.303,6.928 -9.744,11.656c-4.703,6.462 -10.765,15.988 -18.186,28.58c-0.857,1.657 -1.806,3.397 -2.846,5.219c-1.04,1.823 -1.89,4.059 -2.55,6.71c7.396,-7.29 14.085,-14.745 20.067,-22.367c5.981,-7.621 11.137,-15.739 15.465,-24.355c1.631,-2.651 2.27,-5.136 1.917,-7.455l-0.487,-0.573Z"/><path d="M1331.91,2344.31c-3.979,3.313 -8.32,8.201 -13.022,14.662c-4.703,6.462 -10.765,15.988 -18.186,28.58c-0.857,1.657 -1.806,3.397 -2.846,5.219c-1.04,1.823 -1.89,4.059 -2.55,6.71c7.396,-7.29 14.085,-14.745 20.067,-22.367c5.981,-7.621 11.137,-15.739 15.465,-24.355c1.631,-2.651 2.27,-5.136 1.917,-7.455l-0.845,-0.994Zm-80.483,121.774c1.123,-6.295 3.089,-13.502 5.898,-21.621c2.81,-8.118 6.227,-16.568 10.253,-25.349c4.026,-8.781 8.598,-17.396 13.714,-25.846c5.116,-8.45 10.423,-16.485 15.919,-24.106c3.093,-3.977 6.176,-7.87 9.247,-11.681c3.072,-3.81 6.134,-7.538 9.184,-11.183c1.181,-1.657 2.412,-3.065 3.691,-4.225c1.28,-1.16 2.651,-2.402 4.113,-3.728c1.828,-1.657 3.776,-2.982 5.843,-3.976c6.16,-2.651 9.952,-0.663 11.376,5.964c0.508,3.645 0.067,7.125 -1.324,10.438c-0.857,1.657 -1.644,3.397 -2.361,5.219c-0.716,1.823 -1.503,3.562 -2.361,5.219c-9.711,17.893 -21.921,33.799 -36.629,47.716c-1.828,1.657 -3.807,3.231 -5.937,4.722c-2.131,1.491 -4.272,3.065 -6.423,4.722c-2.475,1.656 -4.001,3.479 -4.576,5.467c-2.782,6.627 -5.413,13.337 -7.893,20.13c-2.479,6.793 -4.484,13.669 -6.014,20.627c-0.252,1.988 -0.424,3.977 -0.514,5.965c-0.091,1.988 -0.262,3.976 -0.514,5.964l-0.379,2.983c1.185,5.964 4.653,7.952 10.406,5.964c3.685,-0.994 7.11,-2.485 10.274,-4.473c3.164,-1.989 6.328,-3.977 9.492,-5.965c3.165,-1.988 6.188,-4.142 9.071,-6.461c6.046,-4.308 11.801,-8.864 17.264,-13.669c5.463,-4.805 10.936,-9.692 16.42,-14.663c4.063,-3.976 8.208,-7.952 12.433,-11.929c4.225,-3.976 8.349,-7.787 12.37,-11.432c1.097,-0.994 3.066,-2.485 5.906,-4.473c2.391,-0.994 4.29,-0.663 5.698,0.994c2.055,1.657 2.105,3.811 0.151,6.462c-1.547,1.988 -2.868,3.479 -3.965,4.473c-4.795,4.639 -9.477,9.03 -14.047,13.172c-4.57,4.142 -9.252,8.532 -14.047,13.171c-8.084,7.621 -16.289,14.911 -24.614,21.87c-8.324,6.959 -17.05,13.254 -26.177,18.887c-2.109,1.326 -4.208,2.568 -6.296,3.728c-2.089,1.16 -4.328,2.237 -6.719,3.231c-7.904,3.645 -14.305,3.728 -19.202,0.249c-4.897,-3.48 -7.917,-8.367 -9.059,-14.663l-0.51,-7.456c-0.114,-1.657 -0.055,-3.396 0.176,-5.219c0.232,-1.822 0.452,-3.562 0.662,-5.219Z" style="fill-rule:nonzero;"/><path d="M2263.6,2559.53c-4.144,12.26 -8.309,24.686 -12.494,37.278l-0.437,68.489l-0.513,-0.586c-1.642,-0.541 -2.977,-1.834 -3.538,-3.541c-0.084,-0.256 -0.165,-0.515 -0.242,-0.775l-0.177,-0.202l0.037,-0.285c-1.547,-5.527 -1.597,-11.888 0.02,-19.086c0.009,-0.042 0.019,-0.084 0.029,-0.125c1.308,-5.254 2.525,-10.426 3.652,-15.516c1.147,-5.182 2.387,-10.448 3.718,-15.798c0.013,-0.051 0.026,-0.102 0.041,-0.153c2.994,-10.715 6.293,-21.262 9.899,-31.641c3.58,-10.308 7.344,-20.783 11.292,-31.423c3.901,-10.516 7.461,-20.868 10.678,-31.055c3.267,-10.341 6.879,-20.849 10.839,-31.524c4.067,-11.619 8.307,-23.321 12.72,-35.105c4.39,-11.726 8.608,-23.369 12.655,-34.929c0.02,-0.057 0.041,-0.114 0.063,-0.171c2.029,-5.24 4.754,-10.657 8.186,-16.245l19.929,-34.347c-1.051,0.005 -2.108,-0.287 -3.038,-0.887c-2.114,-1.364 -3.047,-3.978 -2.276,-6.372l2.402,-7.455c0.032,-0.1 0.067,-0.199 0.105,-0.297c6.287,-16.29 12.796,-32.414 19.527,-48.372c5.935,-14.069 11.807,-28.139 17.612,-42.21c-5.083,11.215 -10.16,22.382 -15.231,33.503c-6.675,14.639 -12.9,29.525 -18.675,44.657c-0.007,0.019 -0.014,0.038 -0.022,0.057c-12.392,31.444 -24.359,62.722 -35.901,93.836c-11.531,31.082 -22.56,62.66 -33.087,94.734c-0.002,0.007 -0.004,0.014 -0.006,0.02c-4.189,12.601 -8.357,25.036 -12.504,37.305c-4.141,12.251 -8.303,24.669 -12.486,37.251c-0.003,0.011 -0.007,0.022 -0.01,0.032c-2.539,7.486 -4.75,14.891 -6.633,22.214c-1.878,7.307 -3.51,15.182 -4.898,23.625c-0.118,0.72 -0.372,1.388 -0.733,1.98l-0.953,7.51c-0.183,1.446 -0.235,2.826 -0.145,4.141c0.004,0.06 0.007,0.12 0.009,0.18c0.071,1.983 0.73,3.531 2.218,4.523l0.069,0.048l0.069,-0.042c0.496,-0.333 0.881,-0.666 0.819,-1.198c0.255,2.18 1.751,3.942 3.731,4.614l-0.215,0.216c-1.19,1.058 -2.649,2.051 -4.28,2.208c-1.332,0.128 -2.268,-0.444 -3.274,-1.223c-1.563,-1.21 -2.865,-2.458 -3.686,-4.299c-1.354,-3.037 -1.199,-6.648 -0.826,-9.867l0.531,-4.183c0.23,0.031 0.463,0.046 0.699,0.046l-0.008,-0.024c-0.23,-0.02 -0.458,-0.054 -0.681,-0.104l25.42,-89.427Zm162.475,-373.319l0.309,1.891l0.615,-0.301l2.332,-2.133c0.311,-2.057 0.53,-4.13 0.659,-6.219c0.008,-0.119 0.019,-0.238 0.034,-0.357c0.303,-2.388 0.216,-4.777 -0.259,-7.165c-0.025,-0.126 -0.062,-0.265 -0.103,-0.403c-0.246,0.188 -0.52,0.412 -0.755,0.642c-0.985,1.155 -1.904,2.311 -2.756,3.466c-0.502,0.681 -0.984,1.416 -1.447,2.203l0.855,5.221l-0.657,0.215c-0.255,0.328 -0.495,0.642 -0.72,0.944l-0.664,-4.257l-1.042,1.743l-0.832,1.405l1.862,2.036c-0.77,1.081 -1.303,1.949 -1.598,2.602c-11.229,22.201 -21.304,44.237 -30.226,66.106c-6.548,15.906 -13.177,31.811 -19.886,47.716c-6.709,15.905 -13.197,31.976 -19.463,48.213l-2.402,7.456c2.193,-1.988 3.944,-4.308 5.251,-6.959c3.387,-6.296 6.915,-12.426 10.583,-18.39l60.31,-145.675Zm-6.001,-0.436l-0.067,0.115l0.433,0.685l0.198,-1.761l-0.564,0.961Z"/><path d="M2424.9,2183.27c-1.546,1.988 -2.544,3.479 -2.994,4.473c-11.229,22.201 -21.304,44.237 -30.226,66.106c-6.548,15.906 -13.177,31.811 -19.886,47.716c-6.709,15.905 -13.197,31.976 -19.463,48.213l-2.402,7.456c2.193,-1.988 3.944,-4.308 5.251,-6.959c3.387,-6.296 6.915,-12.426 10.583,-18.39c3.669,-5.965 7.197,-12.095 10.584,-18.391c7.224,-13.586 14.044,-27.171 20.459,-40.757c6.415,-13.586 12.306,-27.503 17.672,-41.751c2.909,-7.622 5.433,-15.409 7.575,-23.361c2.141,-7.953 3.597,-16.237 4.366,-24.852l-1.519,0.497Zm-185.548,460.259c1.417,-8.616 3.083,-16.651 5,-24.107c1.916,-7.455 4.167,-14.994 6.752,-22.615c4.185,-12.592 8.35,-25.018 12.494,-37.278c4.144,-12.26 8.309,-24.686 12.495,-37.278c10.549,-32.142 21.601,-63.787 33.156,-94.935c11.555,-31.148 23.536,-62.461 35.942,-93.94c5.816,-15.243 12.086,-30.237 18.81,-44.982c6.724,-14.746 13.459,-29.574 20.204,-44.485c10.019,-22.864 21.592,-45.231 34.72,-67.101c0.858,-1.657 1.775,-3.148 2.752,-4.473c0.977,-1.326 2.035,-2.651 3.174,-3.977c2.235,-2.319 4.373,-3.23 6.413,-2.733c2.04,0.497 3.356,2.236 3.948,5.219c0.593,2.982 0.7,5.964 0.321,8.946c-0.307,4.971 -1.089,9.858 -2.345,14.663c-1.257,4.805 -2.503,9.527 -3.739,14.166c-3.707,13.917 -8.332,27.42 -13.875,40.508c-5.543,13.089 -11.399,26.095 -17.569,39.018c-6.043,11.929 -12.308,23.692 -18.794,35.29c-6.486,11.598 -13.215,23.195 -20.187,34.793l-24.225,41.751c-3.261,5.302 -5.854,10.438 -7.778,15.408c-4.06,11.598 -8.292,23.278 -12.697,35.042c-4.404,11.763 -8.636,23.443 -12.696,35.041c-3.934,10.603 -7.523,21.041 -10.767,31.313c-3.245,10.273 -6.834,20.71 -10.767,31.314c-3.934,10.604 -7.685,21.041 -11.253,31.314c-3.568,10.272 -6.834,20.71 -9.797,31.313c-1.32,5.302 -2.548,10.521 -3.685,15.657c-1.137,5.136 -2.365,10.355 -3.685,15.657c-1.488,6.627 -1.415,12.426 0.22,17.396l-0.19,1.491c0.311,2.651 -0.771,4.805 -3.246,6.462c-2.475,1.656 -4.578,1.656 -6.309,-0c-2.983,-1.989 -4.546,-4.971 -4.689,-8.947c-0.113,-1.657 -0.054,-3.397 0.177,-5.219l1.23,-9.692l0.485,-0Z" style="fill-rule:nonzero;"/><path d="M3298.51,2466.09c1.123,-6.295 3.088,-13.502 5.898,-21.621c2.809,-8.118 6.227,-16.568 10.253,-25.349c4.026,-8.781 8.597,-17.396 13.714,-25.846c5.116,-8.45 10.423,-16.485 15.919,-24.106c3.093,-3.977 6.175,-7.87 9.247,-11.681c3.072,-3.81 6.133,-7.538 9.184,-11.183c1.181,-1.657 2.411,-3.065 3.691,-4.225c1.279,-1.16 2.65,-2.402 4.113,-3.728c1.828,-1.657 3.775,-2.982 5.843,-3.976c6.16,-2.651 9.952,-0.663 11.376,5.964c0.508,3.645 0.067,7.125 -1.324,10.438c-0.858,1.657 -1.645,3.397 -2.361,5.219c-0.717,1.823 -1.504,3.562 -2.361,5.219c-9.712,17.893 -21.921,33.799 -36.629,47.716c-1.828,1.657 -3.807,3.231 -5.937,4.722c-2.131,1.491 -4.272,3.065 -6.423,4.722c-2.475,1.656 -4.001,3.479 -4.577,5.467c-2.782,6.627 -5.413,13.337 -7.892,20.13c-2.48,6.793 -4.484,13.669 -6.014,20.627c-0.253,1.988 -0.424,3.977 -0.514,5.965c-0.091,1.988 -0.262,3.976 -0.515,5.964l-0.378,2.983c1.185,5.964 4.653,7.952 10.406,5.964c3.685,-0.994 7.11,-2.485 10.274,-4.473c3.164,-1.989 6.328,-3.977 9.492,-5.965c3.164,-1.988 6.188,-4.142 9.07,-6.461c6.047,-4.308 11.802,-8.864 17.265,-13.669c5.463,-4.805 10.936,-9.692 16.42,-14.663c4.063,-3.976 8.208,-7.952 12.433,-11.929c4.225,-3.976 8.348,-7.787 12.37,-11.432c1.097,-0.994 3.065,-2.485 5.906,-4.473c2.391,-0.994 4.29,-0.663 5.698,0.994c2.054,1.657 2.105,3.811 0.151,6.462c-1.547,1.988 -2.868,3.479 -3.965,4.473c-4.795,4.639 -9.477,9.03 -14.047,13.172c-4.57,4.142 -9.252,8.532 -14.047,13.171c-8.085,7.621 -16.289,14.911 -24.614,21.87c-8.324,6.959 -17.05,13.254 -26.177,18.887c-2.109,1.326 -4.208,2.568 -6.297,3.728c-2.088,1.16 -4.328,2.237 -6.719,3.231c-7.904,3.645 -14.304,3.728 -19.201,0.249c-4.897,-3.48 -7.917,-8.367 -9.06,-14.663l-0.51,-7.456c-0.113,-1.657 -0.054,-3.396 0.177,-5.219c0.231,-1.822 0.452,-3.562 0.662,-5.219Zm58.942,-104.6c-2.894,3.594 -5.798,7.266 -8.739,11.048c-5.38,7.467 -10.576,15.339 -15.586,23.614c-5.005,8.266 -9.477,16.693 -13.416,25.284c-3.947,8.608 -7.299,16.891 -10.053,24.85c-2.681,7.746 -4.572,14.627 -5.655,20.647l-0.644,5.076c-0.183,1.445 -0.235,2.825 -0.145,4.14c-0,0 0.488,7.128 0.495,7.166c0.906,4.611 3.127,8.229 6.749,10.803c3.489,2.478 8.028,1.831 13.658,-0.765c0.064,-0.029 0.128,-0.058 0.194,-0.085c2.189,-0.91 4.241,-1.895 6.154,-2.958c2.003,-1.112 4.016,-2.304 6.038,-3.575c0.013,-0.007 0.026,-0.015 0.038,-0.023c8.902,-5.494 17.413,-11.635 25.532,-18.423c1.275,-1.065 2.546,-2.138 3.814,-3.222c-3.381,2.727 -6.858,5.364 -10.419,7.902c-3.026,2.43 -6.198,4.687 -9.516,6.772c-3.164,1.988 -6.328,3.976 -9.493,5.965c-3.598,2.261 -7.489,3.963 -11.599,5.083c-4.697,1.579 -8.462,1.138 -11.309,-0.494c-2.886,-1.655 -5.19,-4.739 -6.176,-9.702c-0.117,-0.587 -0.138,-1.188 -0.062,-1.782c-0,0 0.378,-2.982 0.378,-2.982c0.233,-1.839 0.392,-3.678 0.476,-5.518c-0,0 -0,0 -0,0c0.097,-2.137 0.281,-4.274 0.552,-6.411c0.021,-0.166 0.05,-0.33 0.086,-0.494c1.582,-7.198 3.656,-14.312 6.221,-21.339c2.479,-6.79 5.106,-13.498 7.866,-20.069c0.92,-2.899 2.999,-5.7 6.558,-8.122c2.177,-1.674 4.344,-3.265 6.501,-4.775c1.879,-1.315 3.63,-2.701 5.274,-4.182c-0.547,-0.116 -1.082,-0.318 -1.587,-0.606c-2.162,-1.233 -3.24,-3.753 -2.639,-6.168c0.799,-3.212 1.855,-5.913 3.116,-8.122c-0,0 -0,0 -0,0c1,-1.752 1.912,-3.425 2.737,-5.018c0.046,-0.091 0.096,-0.18 0.148,-0.268c5.569,-9.45 10.389,-17.198 14.453,-23.247Zm21.899,-16.753c0.347,-2.617 1.043,-5.217 2.424,-5.028l-0.075,-0.179c-0.141,-0.308 -0.148,-0.652 -0.413,-0.718c-0.728,-0.181 -1.568,0.17 -2.681,0.654c-1.536,0.76 -2.982,1.765 -4.346,3.001l-0.68,0.617c-0.235,1.014 -0.182,2.097 0.189,3.122c0.141,0.391 0.323,0.758 0.542,1.097c0.077,-0.391 0.092,-0.776 0.034,-1.158l1.37,1.177c-3.056,3.042 -6.303,6.928 -9.745,11.656c-4.702,6.462 -10.764,15.988 -18.185,28.58c-0.858,1.657 -1.806,3.397 -2.846,5.219c-1.04,1.823 -1.89,4.059 -2.55,6.71c7.396,-7.29 14.084,-14.745 20.066,-22.367c5.982,-7.621 11.137,-15.739 15.466,-24.355c1.63,-2.651 2.269,-5.136 1.917,-7.455l-0.487,-0.573Z"/><path d="M3378.99,2344.31c-3.979,3.313 -8.32,8.201 -13.023,14.662c-4.702,6.462 -10.764,15.988 -18.185,28.58c-0.858,1.657 -1.806,3.397 -2.846,5.219c-1.04,1.823 -1.89,4.059 -2.55,6.71c7.396,-7.29 14.084,-14.745 20.066,-22.367c5.982,-7.621 11.137,-15.739 15.466,-24.355c1.63,-2.651 2.269,-5.136 1.917,-7.455l-0.845,-0.994Zm-80.483,121.774c1.123,-6.295 3.088,-13.502 5.898,-21.621c2.809,-8.118 6.227,-16.568 10.253,-25.349c4.026,-8.781 8.597,-17.396 13.714,-25.846c5.116,-8.45 10.423,-16.485 15.919,-24.106c3.093,-3.977 6.175,-7.87 9.247,-11.681c3.072,-3.81 6.133,-7.538 9.184,-11.183c1.181,-1.657 2.411,-3.065 3.691,-4.225c1.279,-1.16 2.65,-2.402 4.113,-3.728c1.828,-1.657 3.775,-2.982 5.843,-3.976c6.16,-2.651 9.952,-0.663 11.376,5.964c0.508,3.645 0.067,7.125 -1.324,10.438c-0.858,1.657 -1.645,3.397 -2.361,5.219c-0.717,1.823 -1.504,3.562 -2.361,5.219c-9.712,17.893 -21.921,33.799 -36.629,47.716c-1.828,1.657 -3.807,3.231 -5.937,4.722c-2.131,1.491 -4.272,3.065 -6.423,4.722c-2.475,1.656 -4.001,3.479 -4.577,5.467c-2.782,6.627 -5.413,13.337 -7.892,20.13c-2.48,6.793 -4.484,13.669 -6.014,20.627c-0.253,1.988 -0.424,3.977 -0.514,5.965c-0.091,1.988 -0.262,3.976 -0.515,5.964l-0.378,2.983c1.185,5.964 4.653,7.952 10.406,5.964c3.685,-0.994 7.11,-2.485 10.274,-4.473c3.164,-1.989 6.328,-3.977 9.492,-5.965c3.164,-1.988 6.188,-4.142 9.07,-6.461c6.047,-4.308 11.802,-8.864 17.265,-13.669c5.463,-4.805 10.936,-9.692 16.42,-14.663c4.063,-3.976 8.208,-7.952 12.433,-11.929c4.225,-3.976 8.348,-7.787 12.37,-11.432c1.097,-0.994 3.065,-2.485 5.906,-4.473c2.391,-0.994 4.29,-0.663 5.698,0.994c2.054,1.657 2.105,3.811 0.151,6.462c-1.547,1.988 -2.868,3.479 -3.965,4.473c-4.795,4.639 -9.477,9.03 -14.047,13.172c-4.57,4.142 -9.252,8.532 -14.047,13.171c-8.085,7.621 -16.289,14.911 -24.614,21.87c-8.324,6.959 -17.05,13.254 -26.177,18.887c-2.109,1.326 -4.208,2.568 -6.297,3.728c-2.088,1.16 -4.328,2.237 -6.719,3.231c-7.904,3.645 -14.304,3.728 -19.201,0.249c-4.897,-3.48 -7.917,-8.367 -9.06,-14.663l-0.51,-7.456c-0.113,-1.657 -0.054,-3.396 0.177,-5.219c0.231,-1.822 0.452,-3.562 0.662,-5.219Z" style="fill-rule:nonzero;"/><path d="M4419.79,2399.48c-6.286,3.645 -13.374,7.87 -21.263,12.675c-7.89,4.804 -14.915,8.532 -21.075,11.183c-4.135,1.988 -8.305,2.982 -12.511,2.982c-9.341,-0.331 -13.036,-5.633 -11.086,-15.905c3.3,-13.254 7.384,-25.68 12.252,-37.278c4.869,-11.598 10.627,-23.195 17.275,-34.793c0.858,-1.657 1.806,-3.396 2.847,-5.219c1.04,-1.822 2.15,-3.562 3.331,-5.219c1.223,-1.988 2.748,-3.81 4.576,-5.467c1.828,-1.657 3.955,-2.485 6.382,-2.485c2.427,-0 4.14,1.159 5.14,3.479c1.281,2.651 1.607,6.461 0.976,11.432c-0.631,4.97 -1.684,9.444 -3.159,13.42c-6.686,19.55 -15.898,38.603 -27.635,57.16l-1.834,2.982c0.521,0.994 1.358,1.408 2.511,1.242c1.154,-0.165 2.096,-0.579 2.827,-1.242c6.484,-2.651 13.347,-6.379 20.589,-11.184c7.242,-4.804 14.168,-9.029 20.778,-12.674c2.757,-1.326 4.965,-2.154 6.625,-2.485c2.025,-0.663 3.682,-0.332 4.969,0.994c1.288,1.325 1.644,2.982 1.068,4.97c-0.21,1.657 -0.849,4.142 -1.916,7.456c-3.274,7.952 -6.467,15.905 -9.579,23.858c-3.112,7.952 -6.143,15.905 -9.093,23.858c-3.934,10.603 -7.857,21.124 -11.77,31.562c-3.912,10.437 -7.35,20.958 -10.313,31.562c-1.194,4.307 -2.377,8.532 -3.55,12.674c-1.172,4.142 -1.87,8.367 -2.093,12.675c-0.168,1.325 -0.336,2.651 -0.504,3.976c-0.169,1.325 0.31,2.651 1.436,3.976c0.689,-0.331 1.277,-0.497 1.762,-0.497c0.485,0 1.094,-0.331 1.825,-0.994c2.151,-1.657 4.394,-3.396 6.728,-5.219c2.335,-1.822 4.458,-3.893 6.37,-6.213c15.733,-16.899 30.298,-34.793 43.695,-53.68c13.397,-18.888 26.449,-37.609 39.157,-56.166c1.546,-1.988 2.685,-3.313 3.416,-3.976c1.828,-1.657 3.488,-1.988 4.979,-0.994c1.816,0.994 2.435,2.485 1.859,4.473c-0.899,1.989 -2.143,4.142 -3.731,6.462c-7.943,11.598 -15.396,22.532 -22.362,32.805c-6.965,10.272 -14.05,20.213 -21.255,29.822c-7.205,9.609 -14.61,18.887 -22.216,27.834c-7.606,8.947 -15.698,17.894 -24.274,26.84c-2.194,1.989 -4.366,3.811 -6.518,5.468c-2.151,1.657 -4.24,2.816 -6.265,3.479c-2.025,0.663 -4.047,0.663 -6.066,0c-2.019,-0.663 -3.831,-2.319 -5.436,-4.97c-2.126,-3.645 -2.895,-7.787 -2.306,-12.426c0.336,-2.651 0.683,-5.385 1.04,-8.201c0.357,-2.817 1.028,-5.551 2.011,-8.202c4.985,-18.887 10.666,-37.526 17.044,-55.917c6.377,-18.39 13.937,-36.532 22.678,-54.425c0.899,-1.989 1.472,-3.314 1.718,-3.977c0.245,-0.663 0.228,-1.16 -0.054,-1.491Zm8.022,-11.801c-1.217,0.328 -2.738,0.962 -4.625,1.869c-6.424,3.551 -13.151,7.66 -20.183,12.325c-7.309,4.849 -14.254,8.641 -20.807,11.382c-1.345,0.972 -2.963,1.637 -4.89,1.913c0,0.001 0,0.001 0,0.001c-3.793,0.544 -6.509,-0.894 -8.222,-4.163c-0.082,-0.157 -0.157,-0.317 -0.22,-0.48c-1.349,0.596 -2.925,0.652 -4.377,0.049c-2.378,-0.987 -3.738,-3.46 -3.363,-5.95c-0.642,2.315 -1.259,4.66 -1.851,7.035c-0.587,3.166 -0.703,5.608 0.448,7.259c0.979,1.405 2.856,1.751 5.393,1.845c3.34,-0.028 6.646,-0.854 9.93,-2.433c0.07,-0.033 0.14,-0.066 0.211,-0.096c5.959,-2.564 12.75,-6.178 20.381,-10.825c7.927,-4.828 15.05,-9.073 21.366,-12.736c2.325,-1.348 5.281,-0.839 7.021,1.209c0.296,0.349 0.569,0.733 0.799,1.155l1.431,-3.504c0.809,-2.529 1.345,-4.476 1.558,-5.855Zm-61.193,17.766c7.913,-13.918 13.974,-25.349 18.183,-34.296c4.208,-8.947 7.194,-15.905 8.957,-20.876c1.763,-4.97 2.701,-8.532 2.812,-10.686c0.112,-2.154 0.209,-3.562 0.293,-4.225c-0.815,1.325 -1.222,1.988 -1.222,1.988c-2.53,4.639 -5.225,9.941 -8.085,15.905c-2.86,5.965 -5.66,12.095 -8.4,18.391c-2.74,6.296 -5.216,12.426 -7.429,18.39c-2.212,5.965 -3.916,11.101 -5.109,15.409Zm12.892,-48.146c-3.004,5.996 -5.764,11.992 -8.281,17.988c-3.106,7.4 -5.885,15.144 -8.338,23.251c1.007,-3.15 2.216,-6.629 3.628,-10.434c2.247,-6.057 4.761,-12.282 7.543,-18.675c1.79,-4.113 3.606,-8.156 5.448,-12.13Zm11.757,-21.791l-1.174,2.08c0.036,0.902 0.294,1.796 0.771,2.598l0.051,0.081l0.107,-0.967c0.087,-1.675 0.17,-2.938 0.245,-3.792Zm9.225,-9.998c-0.999,0.005 -1.871,0.361 -2.626,1.045c-1.257,1.14 -2.334,2.376 -3.225,3.716c1.254,-0.548 2.703,-0.63 4.069,-0.149c1.084,0.382 1.986,1.074 2.629,1.949c0.204,-2.608 0.057,-4.687 -0.684,-6.22l-0.163,-0.341Z"/><path d="M4366.62,2405.45c7.913,-13.918 13.974,-25.349 18.183,-34.296c4.208,-8.947 7.194,-15.905 8.957,-20.876c1.763,-4.97 2.701,-8.532 2.812,-10.686c0.112,-2.154 0.209,-3.562 0.293,-4.225c-0.815,1.325 -1.222,1.988 -1.222,1.988c-2.53,4.639 -5.225,9.941 -8.085,15.905c-2.86,5.965 -5.66,12.095 -8.4,18.391c-2.74,6.296 -5.216,12.426 -7.429,18.39c-2.212,5.965 -3.916,11.101 -5.109,15.409Zm53.171,-5.965c-6.286,3.645 -13.374,7.87 -21.263,12.675c-7.89,4.804 -14.915,8.532 -21.075,11.183c-4.135,1.988 -8.305,2.982 -12.511,2.982c-9.341,-0.331 -13.036,-5.633 -11.086,-15.905c3.3,-13.254 7.384,-25.68 12.252,-37.278c4.869,-11.598 10.627,-23.195 17.275,-34.793c0.858,-1.657 1.806,-3.396 2.847,-5.219c1.04,-1.822 2.15,-3.562 3.331,-5.219c1.223,-1.988 2.748,-3.81 4.576,-5.467c1.828,-1.657 3.955,-2.485 6.382,-2.485c2.427,-0 4.14,1.159 5.14,3.479c1.281,2.651 1.607,6.461 0.976,11.432c-0.631,4.97 -1.684,9.444 -3.159,13.42c-6.686,19.55 -15.898,38.603 -27.635,57.16l-1.834,2.982c0.521,0.994 1.358,1.408 2.511,1.242c1.154,-0.165 2.096,-0.579 2.827,-1.242c6.484,-2.651 13.347,-6.379 20.589,-11.184c7.242,-4.804 14.168,-9.029 20.778,-12.674c2.757,-1.326 4.965,-2.154 6.625,-2.485c2.025,-0.663 3.682,-0.332 4.969,0.994c1.288,1.325 1.644,2.982 1.068,4.97c-0.21,1.657 -0.849,4.142 -1.916,7.456c-3.274,7.952 -6.467,15.905 -9.579,23.858c-3.112,7.952 -6.143,15.905 -9.093,23.858c-3.934,10.603 -7.857,21.124 -11.77,31.562c-3.912,10.437 -7.35,20.958 -10.313,31.562c-1.194,4.307 -2.377,8.532 -3.55,12.674c-1.172,4.142 -1.87,8.367 -2.093,12.675c-0.168,1.325 -0.336,2.651 -0.504,3.976c-0.169,1.325 0.31,2.651 1.436,3.976c0.689,-0.331 1.277,-0.497 1.762,-0.497c0.485,0 1.094,-0.331 1.825,-0.994c2.151,-1.657 4.394,-3.396 6.728,-5.219c2.335,-1.822 4.458,-3.893 6.37,-6.213c15.733,-16.899 30.298,-34.793 43.695,-53.68c13.397,-18.888 26.449,-37.609 39.157,-56.166c1.546,-1.988 2.685,-3.313 3.416,-3.976c1.828,-1.657 3.488,-1.988 4.979,-0.994c1.816,0.994 2.435,2.485 1.859,4.473c-0.899,1.989 -2.143,4.142 -3.731,6.462c-7.943,11.598 -15.396,22.532 -22.362,32.805c-6.965,10.272 -14.05,20.213 -21.255,29.822c-7.205,9.609 -14.61,18.887 -22.216,27.834c-7.606,8.947 -15.698,17.894 -24.274,26.84c-2.194,1.989 -4.366,3.811 -6.518,5.468c-2.151,1.657 -4.24,2.816 -6.265,3.479c-2.025,0.663 -4.047,0.663 -6.066,0c-2.019,-0.663 -3.831,-2.319 -5.436,-4.97c-2.126,-3.645 -2.895,-7.787 -2.306,-12.426c0.336,-2.651 0.683,-5.385 1.04,-8.201c0.357,-2.817 1.028,-5.551 2.011,-8.202c4.985,-18.887 10.666,-37.526 17.044,-55.917c6.377,-18.39 13.937,-36.532 22.678,-54.425c0.899,-1.989 1.472,-3.314 1.718,-3.977c0.245,-0.663 0.228,-1.16 -0.054,-1.491Z" style="fill-rule:nonzero;"/><path d="M5444.95,2428.81c1.618,0 2.933,-0.165 3.945,-0.497c9.073,-2.65 18.486,-4.804 28.241,-6.461c9.755,-1.657 19.168,-3.811 28.24,-6.462c1.013,-0.331 2.49,-0.497 4.431,-0.497c2.265,0 3.574,1.16 3.927,3.48c0.915,2.982 -0.005,5.136 -2.762,6.461c-1.378,0.663 -3.403,1.326 -6.076,1.988c-5.345,1.326 -10.588,2.485 -15.729,3.48c-5.141,0.994 -10.384,2.153 -15.729,3.479c-4.655,0.994 -9.533,1.822 -14.632,2.485c-5.099,0.663 -9.976,1.491 -14.632,2.485c-3.685,0.994 -5.9,3.148 -6.644,6.462l-13.843,40.26l-24.908,70.083l-25.474,74.556c-1.11,3.645 -2.925,9.029 -5.447,16.153c-2.522,7.125 -5.275,14.166 -8.261,21.125c-2.986,6.958 -6.331,12.923 -10.036,17.893c-3.704,4.97 -7.314,7.29 -10.831,6.959c-1.9,-0.332 -3.402,-1.243 -4.507,-2.734c-1.105,-1.491 -1.208,-3.231 -0.308,-5.219l1.834,-2.982c6.06,-6.959 10.645,-14.414 13.757,-22.367c3.113,-7.953 5.982,-15.905 8.609,-23.858c5.085,-14.58 9.998,-29.077 14.739,-43.491c4.74,-14.414 9.674,-29.077 14.801,-43.988c5.212,-15.574 10.402,-30.982 15.572,-46.225c5.169,-15.242 10.359,-30.651 15.571,-46.224c0.407,-0.663 0.674,-1.492 0.8,-2.486c0.126,-0.994 0.435,-2.153 0.927,-3.479c-2.223,-0.331 -4.266,-0.166 -6.13,0.497c-1.863,0.663 -3.625,1.16 -5.285,1.491c-3.319,0.663 -5.788,0.994 -7.406,0.994c-2.588,0 -4.241,-0.994 -4.96,-2.982c-0.718,-1.988 -0.163,-3.811 1.665,-5.467c1.828,-1.657 3.877,-3.148 6.148,-4.474c2.272,-1.325 4.638,-1.491 7.101,-0.497c1.857,0.663 3.728,0.58 5.612,-0.248c1.885,-0.829 3.678,-1.574 5.38,-2.237c0.689,-0.331 1.504,-1.657 2.446,-3.976c2.458,-6.627 4.734,-13.089 6.827,-19.385c2.093,-6.296 4.207,-12.757 6.342,-19.384c4.804,-14.912 9.991,-29.657 15.561,-44.237c5.571,-14.58 11.243,-29.325 17.018,-44.237c3.723,-8.946 7.295,-17.976 10.716,-27.088c3.421,-9.113 7.155,-18.142 11.202,-27.089c3.556,-7.621 7.262,-15.16 11.12,-22.615c3.858,-7.456 7.888,-14.994 12.09,-22.616c2.488,-4.307 5.117,-8.449 7.886,-12.426c2.769,-3.976 5.7,-7.952 8.793,-11.928c1.589,-2.32 3.663,-4.64 6.222,-6.959c2.517,-1.988 4.795,-2.734 6.835,-2.237c2.04,0.497 3.377,2.071 4.012,4.722c0.437,1.657 0.61,3.479 0.519,5.468c-0.09,1.988 -0.079,3.81 0.035,5.467c0.058,4.639 -0.439,9.195 -1.492,13.669c-1.053,4.473 -2.359,9.029 -3.918,13.668c-7.178,20.876 -14.891,41.503 -23.139,61.882c-8.247,20.378 -17.515,40.508 -27.802,60.39c-4.779,9.61 -10.06,18.722 -15.844,27.337c-5.785,8.616 -11.509,17.397 -17.174,26.343c-1.547,1.989 -2.942,4.06 -4.186,6.213c-1.244,2.154 -2.801,4.225 -4.67,6.213c-3.051,3.645 -5.56,8.119 -7.527,13.42c-1.967,5.302 -1.824,9.279 0.428,11.929Zm99.171,-251.289c-0.146,0.063 -0.295,0.181 -0.471,0.273c-0.387,0.203 -0.781,0.465 -1.239,0.824c-2.116,1.938 -3.848,3.867 -5.176,5.806c-0.063,0.092 -0.13,0.183 -0.199,0.271c-3.031,3.898 -5.904,7.796 -8.619,11.694c-2.671,3.835 -5.206,7.829 -7.607,11.982c-4.168,7.561 -8.166,15.04 -11.994,22.437c-3.818,7.378 -7.486,14.838 -11.005,22.38c-3.992,8.826 -7.675,17.734 -11.05,26.723c-3.435,9.152 -7.022,18.22 -10.761,27.205c-5.763,14.882 -11.424,29.599 -16.984,44.151c-5.535,14.488 -10.69,29.14 -15.463,43.957c-2.141,6.644 -4.26,13.122 -6.358,19.434c-2.113,6.354 -4.409,12.875 -6.891,19.564c-0.019,0.053 -0.04,0.105 -0.061,0.157c-1.739,4.286 -3.912,6.282 -5.186,6.894c-0.128,0.062 -0.259,0.118 -0.391,0.17c-1.581,0.615 -3.243,1.306 -4.987,2.071c0.547,0.036 1.102,0.096 1.665,0.18c1.656,0.247 3.112,1.227 3.964,2.668c0.851,1.442 1.008,3.19 0.426,4.759c-0.319,0.859 -0.543,1.603 -0.624,2.247c-0.2,1.575 -0.628,2.917 -1.205,4.031c-5.16,15.417 -10.299,30.671 -15.417,45.764c-5.167,15.235 -10.355,30.636 -15.564,46.203c-0.005,0.014 -0.01,0.029 -0.015,0.043c-5.119,14.888 -10.045,29.527 -14.778,43.918c-4.746,14.431 -9.665,28.945 -14.756,43.542c-2.654,8.032 -5.552,16.064 -8.695,24.095c-3.285,8.394 -8.09,16.278 -14.436,23.639l-1.19,1.935c0.125,0.077 0.265,0.136 0.422,0.18c0.755,-0.02 1.465,-0.493 2.254,-1.112c1.121,-0.881 2.233,-2.108 3.377,-3.643c3.469,-4.654 6.588,-10.248 9.384,-16.764c2.939,-6.848 5.649,-13.777 8.13,-20.787c2.485,-7.021 4.276,-12.326 5.369,-15.918c0.018,-0.06 0.037,-0.12 0.058,-0.179l25.474,-74.556l24.92,-70.12c0,0 13.745,-39.971 13.731,-39.916c1.213,-5.024 4.438,-8.49 9.914,-10.151c-0.511,-0.308 -0.976,-0.699 -1.371,-1.165c-3.304,-3.889 -4.289,-9.679 -1.403,-17.458c2.209,-5.952 5.05,-10.961 8.475,-15.053c0.069,-0.083 0.14,-0.163 0.214,-0.241c1.562,-1.66 2.867,-3.386 3.906,-5.185c1.211,-2.095 2.551,-4.12 4.022,-6.072l-0.231,-0.076c-2.467,-0.869 -3.994,-3.343 -3.664,-5.938c0.252,-1.992 0.697,-3.984 1.339,-5.975c-0,-0 -0,-0 -0,-0c0.553,-1.716 1.337,-3.946 2.355,-6.69c5.896,-15.894 11.701,-31.705 17.414,-47.432c5.733,-15.782 11.72,-31.647 17.961,-47.595c0.009,-0.022 0.017,-0.044 0.026,-0.065c1.894,-4.667 4.682,-11.251 8.365,-19.752c3.707,-8.558 7.844,-17.283 12.413,-26.177c4.566,-8.887 9.14,-17.187 13.721,-24.901c4.956,-8.345 9.493,-14.088 13.45,-17.354c1.509,-1.244 3.56,-1.604 5.402,-0.948l0.149,0.059l0.06,-3.528c0.062,-1.381 -0.039,-2.648 -0.342,-3.798c-0.011,-0.041 -0.021,-0.083 -0.031,-0.124c-0.043,-0.177 -0.126,-0.405 -0.196,-0.583Zm-131.994,267.072c-1.441,0.497 -2.808,0.877 -4.104,1.136c-1.662,0.332 -3.072,0.579 -4.233,0.726c1.107,-0.865 2.297,-1.667 3.568,-2.408c0.709,-0.415 1.45,-0.455 2.22,-0.144c0.07,0.028 0.141,0.055 0.212,0.081c0.778,0.277 1.557,0.481 2.337,0.609Zm45.419,-61.51c19.158,-31.148 36.084,-62.544 50.776,-94.189c14.691,-31.645 26.278,-63.042 34.76,-94.189c0.084,-0.663 0.076,-1.243 -0.022,-1.74c-0.099,-0.497 -0.247,-1.243 -0.445,-2.237c-3.613,2.983 -7.683,8.284 -12.209,15.906c-4.526,7.621 -9.045,15.822 -13.556,24.603c-4.511,8.781 -8.597,17.396 -12.258,25.846c-3.66,8.45 -6.432,14.994 -8.314,19.633c-6.224,15.905 -12.195,31.728 -17.913,47.468c-5.718,15.739 -11.527,31.562 -17.427,47.467c-0.984,2.651 -1.742,4.805 -2.276,6.461c-0.534,1.657 -0.906,3.314 -1.116,4.971Z"/><path d="M5457.55,2383.08c19.158,-31.148 36.084,-62.544 50.776,-94.189c14.691,-31.645 26.278,-63.042 34.76,-94.189c0.084,-0.663 0.076,-1.243 -0.022,-1.74c-0.099,-0.497 -0.247,-1.243 -0.445,-2.237c-3.613,2.983 -7.683,8.284 -12.209,15.906c-4.526,7.621 -9.045,15.822 -13.556,24.603c-4.511,8.781 -8.597,17.396 -12.258,25.846c-3.66,8.45 -6.432,14.994 -8.314,19.633c-6.224,15.905 -12.195,31.728 -17.913,47.468c-5.718,15.739 -11.527,31.562 -17.427,47.467c-0.984,2.651 -1.742,4.805 -2.276,6.461c-0.534,1.657 -0.906,3.314 -1.116,4.971Zm-12.596,45.727c1.618,0 2.933,-0.165 3.945,-0.497c9.073,-2.65 18.486,-4.804 28.241,-6.461c9.755,-1.657 19.168,-3.811 28.24,-6.462c1.013,-0.331 2.49,-0.497 4.431,-0.497c2.265,0 3.574,1.16 3.927,3.48c0.915,2.982 -0.005,5.136 -2.762,6.461c-1.378,0.663 -3.403,1.326 -6.076,1.988c-5.345,1.326 -10.588,2.485 -15.729,3.48c-5.141,0.994 -10.384,2.153 -15.729,3.479c-4.655,0.994 -9.533,1.822 -14.632,2.485c-5.099,0.663 -9.976,1.491 -14.632,2.485c-3.685,0.994 -5.9,3.148 -6.644,6.462l-13.843,40.26l-24.908,70.083l-25.474,74.556c-1.11,3.645 -2.925,9.029 -5.447,16.153c-2.522,7.125 -5.275,14.166 -8.261,21.125c-2.986,6.958 -6.331,12.923 -10.036,17.893c-3.704,4.97 -7.314,7.29 -10.831,6.959c-1.9,-0.332 -3.402,-1.243 -4.507,-2.734c-1.105,-1.491 -1.208,-3.231 -0.308,-5.219l1.834,-2.982c6.06,-6.959 10.645,-14.414 13.757,-22.367c3.113,-7.953 5.982,-15.905 8.609,-23.858c5.085,-14.58 9.998,-29.077 14.739,-43.491c4.74,-14.414 9.674,-29.077 14.801,-43.988c5.212,-15.574 10.402,-30.982 15.572,-46.225c5.169,-15.242 10.359,-30.651 15.571,-46.224c0.407,-0.663 0.674,-1.492 0.8,-2.486c0.126,-0.994 0.435,-2.153 0.927,-3.479c-2.223,-0.331 -4.266,-0.166 -6.13,0.497c-1.863,0.663 -3.625,1.16 -5.285,1.491c-3.319,0.663 -5.788,0.994 -7.406,0.994c-2.588,0 -4.241,-0.994 -4.96,-2.982c-0.718,-1.988 -0.163,-3.811 1.665,-5.467c1.828,-1.657 3.877,-3.148 6.148,-4.474c2.272,-1.325 4.638,-1.491 7.101,-0.497c1.857,0.663 3.728,0.58 5.612,-0.248c1.885,-0.829 3.678,-1.574 5.38,-2.237c0.689,-0.331 1.504,-1.657 2.446,-3.976c2.458,-6.627 4.734,-13.089 6.827,-19.385c2.093,-6.296 4.207,-12.757 6.342,-19.384c4.804,-14.912 9.991,-29.657 15.561,-44.237c5.571,-14.58 11.243,-29.325 17.018,-44.237c3.723,-8.946 7.295,-17.976 10.716,-27.088c3.421,-9.113 7.155,-18.142 11.202,-27.089c3.556,-7.621 7.262,-15.16 11.12,-22.615c3.858,-7.456 7.888,-14.994 12.09,-22.616c2.488,-4.307 5.117,-8.449 7.886,-12.426c2.769,-3.976 5.7,-7.952 8.793,-11.928c1.589,-2.32 3.663,-4.64 6.222,-6.959c2.517,-1.988 4.795,-2.734 6.835,-2.237c2.04,0.497 3.377,2.071 4.012,4.722c0.437,1.657 0.61,3.479 0.519,5.468c-0.09,1.988 -0.079,3.81 0.035,5.467c0.058,4.639 -0.439,9.195 -1.492,13.669c-1.053,4.473 -2.359,9.029 -3.918,13.668c-7.178,20.876 -14.891,41.503 -23.139,61.882c-8.247,20.378 -17.515,40.508 -27.802,60.39c-4.779,9.61 -10.06,18.722 -15.844,27.337c-5.785,8.616 -11.509,17.397 -17.174,26.343c-1.547,1.989 -2.942,4.06 -4.186,6.213c-1.244,2.154 -2.801,4.225 -4.67,6.213c-3.051,3.645 -5.56,8.119 -7.527,13.42c-1.967,5.302 -1.824,9.279 0.428,11.929Z" style="fill-rule:nonzero;"/><path d="M6553.26,2399.48c-6.287,3.645 -13.374,7.87 -21.264,12.675c-7.889,4.804 -14.914,8.532 -21.074,11.183c-4.135,1.988 -8.305,2.982 -12.511,2.982c-9.341,-0.331 -13.037,-5.633 -11.086,-15.905c3.299,-13.254 7.383,-25.68 12.252,-37.278c4.869,-11.598 10.627,-23.195 17.275,-34.793c0.857,-1.657 1.806,-3.396 2.846,-5.219c1.04,-1.822 2.151,-3.562 3.332,-5.219c1.222,-1.988 2.748,-3.81 4.576,-5.467c1.828,-1.657 3.955,-2.485 6.382,-2.485c2.426,-0 4.139,1.159 5.139,3.479c1.282,2.651 1.607,6.461 0.977,11.432c-0.631,4.97 -1.684,9.444 -3.159,13.42c-6.687,19.55 -15.898,38.603 -27.636,57.16l-1.834,2.982c0.521,0.994 1.358,1.408 2.512,1.242c1.153,-0.165 2.096,-0.579 2.827,-1.242c6.483,-2.651 13.346,-6.379 20.589,-11.184c7.242,-4.804 14.168,-9.029 20.778,-12.674c2.756,-1.326 4.965,-2.154 6.624,-2.485c2.026,-0.663 3.682,-0.332 4.97,0.994c1.288,1.325 1.644,2.982 1.068,4.97c-0.21,1.657 -0.849,4.142 -1.916,7.456c-3.274,7.952 -6.467,15.905 -9.579,23.858c-3.112,7.952 -6.143,15.905 -9.094,23.858c-3.933,10.603 -7.856,21.124 -11.769,31.562c-3.913,10.437 -7.351,20.958 -10.314,31.562c-1.193,4.307 -2.376,8.532 -3.549,12.674c-1.173,4.142 -1.87,8.367 -2.093,12.675c-0.169,1.325 -0.337,2.651 -0.505,3.976c-0.168,1.325 0.311,2.651 1.437,3.976c0.689,-0.331 1.276,-0.497 1.762,-0.497c0.485,0 1.093,-0.331 1.824,-0.994c2.152,-1.657 4.395,-3.396 6.729,-5.219c2.334,-1.822 4.457,-3.893 6.369,-6.213c15.733,-16.899 30.298,-34.793 43.695,-53.68c13.397,-18.888 26.45,-37.609 39.157,-56.166c1.547,-1.988 2.685,-3.313 3.417,-3.976c1.828,-1.657 3.487,-1.988 4.979,-0.994c1.815,0.994 2.435,2.485 1.859,4.473c-0.899,1.989 -2.143,4.142 -3.732,6.462c-7.942,11.598 -15.396,22.532 -22.361,32.805c-6.966,10.272 -14.051,20.213 -21.255,29.822c-7.205,9.609 -14.611,18.887 -22.217,27.834c-7.606,8.947 -15.697,17.894 -24.274,26.84c-2.193,1.989 -4.366,3.811 -6.517,5.468c-2.152,1.657 -4.24,2.816 -6.265,3.479c-2.026,0.663 -4.048,0.663 -6.067,0c-2.019,-0.663 -3.831,-2.319 -5.436,-4.97c-2.126,-3.645 -2.894,-7.787 -2.306,-12.426c0.337,-2.651 0.683,-5.385 1.041,-8.201c0.357,-2.817 1.027,-5.551 2.011,-8.202c4.985,-18.887 10.666,-37.526 17.043,-55.917c6.378,-18.39 13.937,-36.532 22.678,-54.425c0.9,-1.989 1.472,-3.314 1.718,-3.977c0.246,-0.663 0.228,-1.16 -0.053,-1.491Zm8.022,-11.801c-1.217,0.328 -2.738,0.962 -4.626,1.869c-6.424,3.551 -13.151,7.66 -20.182,12.325c-7.309,4.849 -14.255,8.641 -20.808,11.382c-1.344,0.972 -2.962,1.637 -4.889,1.913c-0,0.001 -0,0.001 -0,0.001c-3.794,0.544 -6.509,-0.894 -8.223,-4.163c-0.082,-0.157 -0.156,-0.317 -0.22,-0.48c-1.348,0.596 -2.925,0.652 -4.377,0.049c-2.377,-0.987 -3.737,-3.46 -3.362,-5.95c-0.643,2.315 -1.259,4.66 -1.851,7.035c-0.587,3.166 -0.703,5.608 0.447,7.259c0.98,1.405 2.856,1.751 5.394,1.845c3.339,-0.028 6.646,-0.854 9.929,-2.433c0.07,-0.033 0.141,-0.066 0.212,-0.096c5.958,-2.564 12.749,-6.178 20.38,-10.825c7.928,-4.828 15.05,-9.073 21.367,-12.736c2.325,-1.348 5.281,-0.839 7.021,1.209c0.296,0.349 0.569,0.733 0.799,1.155l1.431,-3.504c0.809,-2.529 1.344,-4.476 1.558,-5.855Zm-61.194,17.766c7.914,-13.918 13.974,-25.349 18.183,-34.296c4.209,-8.947 7.195,-15.905 8.958,-20.876c1.763,-4.97 2.7,-8.532 2.812,-10.686c0.111,-2.154 0.209,-3.562 0.293,-4.225c-0.815,1.325 -1.223,1.988 -1.223,1.988c-2.53,4.639 -5.224,9.941 -8.084,15.905c-2.86,5.965 -5.66,12.095 -8.4,18.391c-2.74,6.296 -5.216,12.426 -7.429,18.39c-2.213,5.965 -3.916,11.101 -5.11,15.409Zm12.892,-48.146c-3.004,5.996 -5.763,11.992 -8.281,17.988c-3.106,7.4 -5.884,15.144 -8.338,23.251c1.008,-3.15 2.216,-6.629 3.628,-10.434c2.247,-6.057 4.762,-12.282 7.544,-18.675c1.79,-4.113 3.605,-8.156 5.447,-12.13Zm11.758,-21.791l-1.175,2.08c0.036,0.902 0.295,1.796 0.771,2.598l0.052,0.081l0.107,-0.967c0.086,-1.675 0.169,-2.938 0.245,-3.792Zm9.225,-9.998c-0.999,0.005 -1.872,0.361 -2.626,1.045c-1.257,1.14 -2.335,2.376 -3.225,3.716c1.253,-0.548 2.703,-0.63 4.069,-0.149c1.083,0.382 1.986,1.074 2.629,1.949c0.204,-2.608 0.057,-4.687 -0.684,-6.22l-0.163,-0.341Z"/><path d="M6500.09,2405.45c7.914,-13.918 13.974,-25.349 18.183,-34.296c4.209,-8.947 7.195,-15.905 8.958,-20.876c1.763,-4.97 2.7,-8.532 2.812,-10.686c0.111,-2.154 0.209,-3.562 0.293,-4.225c-0.815,1.325 -1.223,1.988 -1.223,1.988c-2.53,4.639 -5.224,9.941 -8.084,15.905c-2.86,5.965 -5.66,12.095 -8.4,18.391c-2.74,6.296 -5.216,12.426 -7.429,18.39c-2.213,5.965 -3.916,11.101 -5.11,15.409Zm53.172,-5.965c-6.287,3.645 -13.374,7.87 -21.264,12.675c-7.889,4.804 -14.914,8.532 -21.074,11.183c-4.135,1.988 -8.305,2.982 -12.511,2.982c-9.341,-0.331 -13.037,-5.633 -11.086,-15.905c3.299,-13.254 7.383,-25.68 12.252,-37.278c4.869,-11.598 10.627,-23.195 17.275,-34.793c0.857,-1.657 1.806,-3.396 2.846,-5.219c1.04,-1.822 2.151,-3.562 3.332,-5.219c1.222,-1.988 2.748,-3.81 4.576,-5.467c1.828,-1.657 3.955,-2.485 6.382,-2.485c2.426,-0 4.139,1.159 5.139,3.479c1.282,2.651 1.607,6.461 0.977,11.432c-0.631,4.97 -1.684,9.444 -3.159,13.42c-6.687,19.55 -15.898,38.603 -27.636,57.16l-1.834,2.982c0.521,0.994 1.358,1.408 2.512,1.242c1.153,-0.165 2.096,-0.579 2.827,-1.242c6.483,-2.651 13.346,-6.379 20.589,-11.184c7.242,-4.804 14.168,-9.029 20.778,-12.674c2.756,-1.326 4.965,-2.154 6.624,-2.485c2.026,-0.663 3.682,-0.332 4.97,0.994c1.288,1.325 1.644,2.982 1.068,4.97c-0.21,1.657 -0.849,4.142 -1.916,7.456c-3.274,7.952 -6.467,15.905 -9.579,23.858c-3.112,7.952 -6.143,15.905 -9.094,23.858c-3.933,10.603 -7.856,21.124 -11.769,31.562c-3.913,10.437 -7.351,20.958 -10.314,31.562c-1.193,4.307 -2.376,8.532 -3.549,12.674c-1.173,4.142 -1.87,8.367 -2.093,12.675c-0.169,1.325 -0.337,2.651 -0.505,3.976c-0.168,1.325 0.311,2.651 1.437,3.976c0.689,-0.331 1.276,-0.497 1.762,-0.497c0.485,0 1.093,-0.331 1.824,-0.994c2.152,-1.657 4.395,-3.396 6.729,-5.219c2.334,-1.822 4.457,-3.893 6.369,-6.213c15.733,-16.899 30.298,-34.793 43.695,-53.68c13.397,-18.888 26.45,-37.609 39.157,-56.166c1.547,-1.988 2.685,-3.313 3.417,-3.976c1.828,-1.657 3.487,-1.988 4.979,-0.994c1.815,0.994 2.435,2.485 1.859,4.473c-0.899,1.989 -2.143,4.142 -3.732,6.462c-7.942,11.598 -15.396,22.532 -22.361,32.805c-6.966,10.272 -14.051,20.213 -21.255,29.822c-7.205,9.609 -14.611,18.887 -22.217,27.834c-7.606,8.947 -15.697,17.894 -24.274,26.84c-2.193,1.989 -4.366,3.811 -6.517,5.468c-2.152,1.657 -4.24,2.816 -6.265,3.479c-2.026,0.663 -4.048,0.663 -6.067,0c-2.019,-0.663 -3.831,-2.319 -5.436,-4.97c-2.126,-3.645 -2.894,-7.787 -2.306,-12.426c0.337,-2.651 0.683,-5.385 1.041,-8.201c0.357,-2.817 1.027,-5.551 2.011,-8.202c4.985,-18.887 10.666,-37.526 17.043,-55.917c6.378,-18.39 13.937,-36.532 22.678,-54.425c0.9,-1.989 1.472,-3.314 1.718,-3.977c0.246,-0.663 0.228,-1.16 -0.053,-1.491Z" style="fill-rule:nonzero;"/><path d="M7544.08,2466.09c1.123,-6.295 3.089,-13.502 5.898,-21.621c2.81,-8.118 6.227,-16.568 10.253,-25.349c4.026,-8.781 8.598,-17.396 13.714,-25.846c5.116,-8.45 10.423,-16.485 15.919,-24.106c3.093,-3.977 6.176,-7.87 9.247,-11.681c3.072,-3.81 6.134,-7.538 9.184,-11.183c1.181,-1.657 2.411,-3.065 3.691,-4.225c1.28,-1.16 2.65,-2.402 4.113,-3.728c1.828,-1.657 3.775,-2.982 5.843,-3.976c6.16,-2.651 9.952,-0.663 11.376,5.964c0.508,3.645 0.067,7.125 -1.324,10.438c-0.858,1.657 -1.644,3.397 -2.361,5.219c-0.717,1.823 -1.503,3.562 -2.361,5.219c-9.711,17.893 -21.921,33.799 -36.629,47.716c-1.828,1.657 -3.807,3.231 -5.937,4.722c-2.131,1.491 -4.272,3.065 -6.423,4.722c-2.475,1.656 -4.001,3.479 -4.576,5.467c-2.783,6.627 -5.413,13.337 -7.893,20.13c-2.48,6.793 -4.484,13.669 -6.014,20.627c-0.252,1.988 -0.424,3.977 -0.514,5.965c-0.091,1.988 -0.262,3.976 -0.514,5.964l-0.379,2.983c1.185,5.964 4.653,7.952 10.406,5.964c3.685,-0.994 7.11,-2.485 10.274,-4.473c3.164,-1.989 6.328,-3.977 9.492,-5.965c3.164,-1.988 6.188,-4.142 9.071,-6.461c6.046,-4.308 11.801,-8.864 17.264,-13.669c5.463,-4.805 10.936,-9.692 16.42,-14.663c4.063,-3.976 8.208,-7.952 12.433,-11.929c4.225,-3.976 8.349,-7.787 12.37,-11.432c1.097,-0.994 3.066,-2.485 5.906,-4.473c2.391,-0.994 4.29,-0.663 5.698,0.994c2.054,1.657 2.105,3.811 0.151,6.462c-1.547,1.988 -2.868,3.479 -3.965,4.473c-4.795,4.639 -9.477,9.03 -14.047,13.172c-4.57,4.142 -9.252,8.532 -14.047,13.171c-8.085,7.621 -16.289,14.911 -24.614,21.87c-8.324,6.959 -17.05,13.254 -26.177,18.887c-2.109,1.326 -4.208,2.568 -6.296,3.728c-2.089,1.16 -4.329,2.237 -6.719,3.231c-7.905,3.645 -14.305,3.728 -19.202,0.249c-4.897,-3.48 -7.917,-8.367 -9.06,-14.663l-0.51,-7.456c-0.113,-1.657 -0.054,-3.396 0.177,-5.219c0.231,-1.822 0.452,-3.562 0.662,-5.219Zm58.943,-104.6c-2.895,3.594 -5.799,7.266 -8.739,11.048c-5.381,7.467 -10.576,15.339 -15.587,23.614c-5.005,8.266 -9.477,16.693 -13.416,25.284c-3.946,8.608 -7.299,16.891 -10.053,24.85c-2.681,7.746 -4.572,14.627 -5.654,20.647l-0.644,5.076c-0.184,1.445 -0.236,2.825 -0.146,4.14c0,0 0.488,7.128 0.495,7.166c0.906,4.611 3.127,8.229 6.75,10.803c3.488,2.478 8.027,1.831 13.657,-0.765c0.064,-0.029 0.129,-0.058 0.194,-0.085c2.19,-0.91 4.241,-1.895 6.155,-2.958c2.002,-1.112 4.015,-2.304 6.038,-3.575c0.012,-0.007 0.025,-0.015 0.037,-0.023c8.902,-5.494 17.413,-11.635 25.532,-18.423c1.275,-1.065 2.546,-2.138 3.814,-3.222c-3.381,2.727 -6.858,5.364 -10.419,7.902c-3.026,2.43 -6.198,4.687 -9.516,6.772c-3.164,1.988 -6.328,3.976 -9.492,5.965c-3.599,2.261 -7.489,3.963 -11.599,5.083c-4.698,1.579 -8.463,1.138 -11.31,-0.494c-2.886,-1.655 -5.19,-4.739 -6.176,-9.702c-0.116,-0.587 -0.137,-1.188 -0.062,-1.782c-0,0 0.378,-2.982 0.378,-2.982c0.234,-1.839 0.392,-3.678 0.476,-5.518c-0,0 -0,0 -0,0c0.097,-2.137 0.281,-4.274 0.552,-6.411c0.021,-0.166 0.05,-0.33 0.086,-0.494c1.583,-7.198 3.656,-14.312 6.221,-21.339c2.479,-6.79 5.107,-13.498 7.866,-20.069c0.92,-2.899 2.999,-5.7 6.558,-8.122c2.177,-1.674 4.345,-3.265 6.501,-4.775c1.88,-1.315 3.63,-2.701 5.274,-4.182c-0.547,-0.116 -1.082,-0.318 -1.587,-0.606c-2.162,-1.233 -3.24,-3.753 -2.639,-6.168c0.8,-3.212 1.855,-5.913 3.116,-8.122c-0,0 -0,0 -0,0c1,-1.752 1.912,-3.425 2.737,-5.018c0.047,-0.091 0.096,-0.18 0.148,-0.268c5.569,-9.45 10.389,-17.198 14.454,-23.247Zm21.898,-16.753c0.347,-2.617 1.043,-5.217 2.424,-5.028l-0.075,-0.179c-0.141,-0.308 -0.148,-0.652 -0.413,-0.718c-0.728,-0.181 -1.567,0.17 -2.681,0.654c-1.536,0.76 -2.982,1.765 -4.346,3.001l-0.68,0.617c-0.235,1.014 -0.182,2.097 0.189,3.122c0.141,0.391 0.324,0.758 0.543,1.097c0.076,-0.391 0.091,-0.776 0.033,-1.158l1.37,1.177c-3.056,3.042 -6.303,6.928 -9.745,11.656c-4.702,6.462 -10.764,15.988 -18.185,28.58c-0.857,1.657 -1.806,3.397 -2.846,5.219c-1.04,1.823 -1.89,4.059 -2.55,6.71c7.396,-7.29 14.085,-14.745 20.066,-22.367c5.982,-7.621 11.138,-15.739 15.466,-24.355c1.631,-2.651 2.269,-5.136 1.917,-7.455l-0.487,-0.573Z"/><path d="M7624.56,2344.31c-3.979,3.313 -8.32,8.201 -13.023,14.662c-4.702,6.462 -10.764,15.988 -18.185,28.58c-0.857,1.657 -1.806,3.397 -2.846,5.219c-1.04,1.823 -1.89,4.059 -2.55,6.71c7.396,-7.29 14.085,-14.745 20.066,-22.367c5.982,-7.621 11.138,-15.739 15.466,-24.355c1.631,-2.651 2.269,-5.136 1.917,-7.455l-0.845,-0.994Zm-80.483,121.774c1.123,-6.295 3.089,-13.502 5.898,-21.621c2.81,-8.118 6.227,-16.568 10.253,-25.349c4.026,-8.781 8.598,-17.396 13.714,-25.846c5.116,-8.45 10.423,-16.485 15.919,-24.106c3.093,-3.977 6.176,-7.87 9.247,-11.681c3.072,-3.81 6.134,-7.538 9.184,-11.183c1.181,-1.657 2.411,-3.065 3.691,-4.225c1.28,-1.16 2.65,-2.402 4.113,-3.728c1.828,-1.657 3.775,-2.982 5.843,-3.976c6.16,-2.651 9.952,-0.663 11.376,5.964c0.508,3.645 0.067,7.125 -1.324,10.438c-0.858,1.657 -1.644,3.397 -2.361,5.219c-0.717,1.823 -1.503,3.562 -2.361,5.219c-9.711,17.893 -21.921,33.799 -36.629,47.716c-1.828,1.657 -3.807,3.231 -5.937,4.722c-2.131,1.491 -4.272,3.065 -6.423,4.722c-2.475,1.656 -4.001,3.479 -4.576,5.467c-2.783,6.627 -5.413,13.337 -7.893,20.13c-2.48,6.793 -4.484,13.669 -6.014,20.627c-0.252,1.988 -0.424,3.977 -0.514,5.965c-0.091,1.988 -0.262,3.976 -0.514,5.964l-0.379,2.983c1.185,5.964 4.653,7.952 10.406,5.964c3.685,-0.994 7.11,-2.485 10.274,-4.473c3.164,-1.989 6.328,-3.977 9.492,-5.965c3.164,-1.988 6.188,-4.142 9.071,-6.461c6.046,-4.308 11.801,-8.864 17.264,-13.669c5.463,-4.805 10.936,-9.692 16.42,-14.663c4.063,-3.976 8.208,-7.952 12.433,-11.929c4.225,-3.976 8.349,-7.787 12.37,-11.432c1.097,-0.994 3.066,-2.485 5.906,-4.473c2.391,-0.994 4.29,-0.663 5.698,0.994c2.054,1.657 2.105,3.811 0.151,6.462c-1.547,1.988 -2.868,3.479 -3.965,4.473c-4.795,4.639 -9.477,9.03 -14.047,13.172c-4.57,4.142 -9.252,8.532 -14.047,13.171c-8.085,7.621 -16.289,14.911 -24.614,21.87c-8.324,6.959 -17.05,13.254 -26.177,18.887c-2.109,1.326 -4.208,2.568 -6.296,3.728c-2.089,1.16 -4.329,2.237 -6.719,3.231c-7.905,3.645 -14.305,3.728 -19.202,0.249c-4.897,-3.48 -7.917,-8.367 -9.06,-14.663l-0.51,-7.456c-0.113,-1.657 -0.054,-3.396 0.177,-5.219c0.231,-1.822 0.452,-3.562 0.662,-5.219Z" style="fill-rule:nonzero;"/><path d="M8709.52,2414.89c3.656,-3.313 6.317,-3.893 7.986,-1.739c1.668,2.154 1.342,4.722 -0.978,7.704c-1.546,1.988 -2.847,3.313 -3.902,3.976c-12.753,11.266 -25.577,22.45 -38.471,33.55c-12.895,11.101 -25.859,22.119 -38.894,33.053c-5.076,4.308 -10.121,8.367 -15.134,12.178c-5.013,3.811 -10.016,7.538 -15.008,11.183c-2.883,2.32 -6.694,4.308 -11.434,5.965c-7.454,2.651 -11.851,0.331 -13.191,-6.959c-0.592,-2.982 -0.699,-5.964 -0.321,-8.946c0.42,-3.314 0.749,-6.545 0.987,-9.693c0.238,-3.148 0.728,-6.378 1.472,-9.692c3.468,-14.58 7.389,-28.911 11.764,-42.994c4.375,-14.083 9.711,-28.083 16.006,-42l5.881,-11.929c1.223,-1.988 2.749,-3.81 4.577,-5.467c2.193,-1.988 4.683,-2.485 7.469,-1.491c0.928,0.331 1.389,1.159 1.383,2.485c-0.007,1.325 -0.206,2.899 -0.599,4.722c-0.393,1.822 -0.927,3.479 -1.601,4.97c-0.675,1.491 -1.237,2.734 -1.687,3.728c-7.321,16.899 -13.54,34.047 -18.66,51.444c-5.119,17.396 -9.946,35.041 -14.481,52.934c-0.336,2.651 1.187,3.397 4.57,2.237c3.382,-1.16 5.784,-2.237 7.204,-3.231c3.895,-2.651 7.619,-5.219 11.169,-7.704c3.551,-2.485 7.112,-5.053 10.684,-7.704c7.228,-5.964 14.375,-11.929 21.44,-17.893c7.066,-5.965 14.213,-11.929 21.441,-17.894c6.862,-5.633 13.583,-11.432 20.164,-17.396c6.58,-5.965 13.302,-11.764 20.164,-17.397Zm-85.972,-26.682c-0.286,1.184 -0.649,2.275 -1.098,3.268l-1.723,3.81c-7.411,17.109 -13.708,34.47 -18.891,52.083c-5.139,17.464 -9.984,35.176 -14.537,53.138c-0.055,0.22 -0.098,0.442 -0.126,0.666c-0.421,3.316 0.674,5.527 2.115,6.936c1.667,1.632 4.869,2.935 9.768,1.255c4.047,-1.387 6.888,-2.745 8.588,-3.934c3.309,-2.252 6.535,-4.473 9.639,-6.638l-0.518,0.397c-4.985,3.789 -9.958,7.495 -14.922,11.12c-0.07,0.051 -0.139,0.104 -0.207,0.158c-2.461,1.98 -5.737,3.634 -9.784,5.048c-0.009,0.004 -0.019,0.007 -0.028,0.01c-1.874,0.667 -3.33,1.153 -4.435,0.57c-0.942,-0.497 -1.144,-1.737 -1.431,-3.298c-0.005,-0.026 -0.01,-0.052 -0.015,-0.078c-0.474,-2.388 -0.562,-4.777 -0.259,-7.165c0.433,-3.41 0.771,-6.734 1.016,-9.974c0.217,-2.878 0.667,-5.832 1.346,-8.861c3.436,-14.444 7.321,-28.643 11.656,-42.595c4.296,-13.83 9.534,-27.579 15.712,-41.247c0.013,-0.029 5.729,-11.623 5.729,-11.623c0.686,-1.082 1.488,-2.096 2.405,-3.046Zm10.511,-25.01c-4.206,0 -5.712,-2.154 -4.519,-6.461c0.211,-1.657 0.864,-2.983 1.961,-3.977c1.828,-1.656 3.564,-3.23 5.209,-4.722c1.646,-1.491 3.361,-2.899 5.147,-4.224c2.475,-1.657 4.669,-1.74 6.583,-0.249c1.914,1.491 2.682,3.728 2.304,6.71c-0.408,0.663 -0.745,1.408 -1.012,2.237c-0.267,0.828 -0.766,1.574 -1.497,2.236c-3.333,3.314 -7.369,5.799 -12.109,7.456c-0.365,0.331 -1.195,0.497 -2.489,0.497l0.422,0.497Zm1.005,-5.866l-0.17,0.888c-0.114,0.411 -0.198,1.034 -0.198,1.034l-0.637,-0.782l0,4.137c0.456,-3.033 1.411,-5.801 3.403,-3.935c-0.664,-0.632 -1.484,-1.101 -2.398,-1.342Zm10.194,-9.078c0.043,0.105 0.063,0.222 0.069,0.349l-0.883,2.205c0.018,-0.057 0.009,-0.13 0.06,-0.176c-0.064,0.058 -0.126,0.117 -0.187,0.177c-2.409,2.396 -5.27,4.256 -8.571,5.601l4.695,-4.255c1.456,-1.32 2.972,-2.569 4.548,-3.747c0.089,-0.055 0.181,-0.108 0.269,-0.154Z"/><path d="M8634.06,2363.2c-4.206,0 -5.712,-2.154 -4.519,-6.461c0.211,-1.657 0.864,-2.983 1.961,-3.977c1.828,-1.656 3.564,-3.23 5.209,-4.722c1.646,-1.491 3.361,-2.899 5.147,-4.224c2.475,-1.657 4.669,-1.74 6.583,-0.249c1.914,1.491 2.682,3.728 2.304,6.71c-0.408,0.663 -0.745,1.408 -1.012,2.237c-0.267,0.828 -0.766,1.574 -1.497,2.236c-3.333,3.314 -7.369,5.799 -12.109,7.456c-0.365,0.331 -1.195,0.497 -2.489,0.497l0.422,0.497Zm75.461,51.692c3.656,-3.313 6.317,-3.893 7.986,-1.739c1.668,2.154 1.342,4.722 -0.978,7.704c-1.546,1.988 -2.847,3.313 -3.902,3.976c-12.753,11.266 -25.577,22.45 -38.471,33.55c-12.895,11.101 -25.859,22.119 -38.894,33.053c-5.076,4.308 -10.121,8.367 -15.134,12.178c-5.013,3.811 -10.016,7.538 -15.008,11.183c-2.883,2.32 -6.694,4.308 -11.434,5.965c-7.454,2.651 -11.851,0.331 -13.191,-6.959c-0.592,-2.982 -0.699,-5.964 -0.321,-8.946c0.42,-3.314 0.749,-6.545 0.987,-9.693c0.238,-3.148 0.728,-6.378 1.472,-9.692c3.468,-14.58 7.389,-28.911 11.764,-42.994c4.375,-14.083 9.711,-28.083 16.006,-42l5.881,-11.929c1.223,-1.988 2.749,-3.81 4.577,-5.467c2.193,-1.988 4.683,-2.485 7.469,-1.491c0.928,0.331 1.389,1.159 1.383,2.485c-0.007,1.325 -0.206,2.899 -0.599,4.722c-0.393,1.822 -0.927,3.479 -1.601,4.97c-0.675,1.491 -1.237,2.734 -1.687,3.728c-7.321,16.899 -13.54,34.047 -18.66,51.444c-5.119,17.396 -9.946,35.041 -14.481,52.934c-0.336,2.651 1.187,3.397 4.57,2.237c3.382,-1.16 5.784,-2.237 7.204,-3.231c3.895,-2.651 7.619,-5.219 11.169,-7.704c3.551,-2.485 7.112,-5.053 10.684,-7.704c7.228,-5.964 14.375,-11.929 21.44,-17.893c7.066,-5.965 14.213,-11.929 21.441,-17.894c6.862,-5.633 13.583,-11.432 20.164,-17.396c6.58,-5.965 13.302,-11.764 20.164,-17.397Z" style="fill-rule:nonzero;"/></g><path d="M236.192,1594.82l8399.3,4.165" style="fill:none;stroke:#000;stroke-width:8.33px;"/><path d="M251.463,3379.13l8391.68,2.571" style="fill:none;stroke:#000;stroke-width:8.33px;"/><rect x="2705.73" y="3311.72" width="3262.12" height="167.679" style="fill:#fff;stroke:#fff;stroke-width:8.33px;"/><g><path d="M3014.36,3462.99l-77.989,-0l-0,103.146l-4.069,0l-0,-191.456l82.058,0l0,4.28l-77.989,0l-0,79.892l77.989,0l0,4.138Z" style="fill:#fff;fill-rule:nonzero;stroke:#000;stroke-width:5.56px;stroke-linecap:butt;stroke-miterlimit:2;"/><path d="M3361,3567.99l-82.059,-0l0,-193.311l82.059,0l-0,4.28l-77.99,0l0,79.892l57.916,0l-0,4.138l-57.916,-0l0,101.149l77.99,-0l-0,3.852Z" style="fill:#fff;fill-rule:nonzero;stroke:#000;stroke-width:5.56px;stroke-linecap:butt;stroke-miterlimit:2;"/><path d="M3707.64,3567.99l-82.058,-0l-0,-191.171l4.069,0l-0,187.319l77.989,-0l0,3.852Z" style="fill:#fff;fill-rule:nonzero;stroke:#000;stroke-width:5.56px;stroke-linecap:butt;stroke-miterlimit:2;"/><path d="M4054.29,3567.99l-82.058,-0l-0,-193.311l82.058,0l-0,4.28l-77.989,0l-0,79.892l57.915,0l0,4.138l-57.915,-0l-0,101.149l77.989,-0l-0,3.852Z" style="fill:#fff;fill-rule:nonzero;stroke:#000;stroke-width:5.56px;stroke-linecap:butt;stroke-miterlimit:2;"/><path d="M4422.9,3429.46c0,29.58 -12.975,47.222 -38.927,52.929l38.792,82.888l-3.663,1.57l-39.198,-83.602c-3.707,0.571 -7.55,0.856 -11.529,0.856l-45.437,0l0,82.032l-4.069,0l0,-191.456l49.506,0c13.835,0 25.454,3.377 34.858,10.129c13.112,9.416 19.667,24.301 19.667,44.654Zm-3.933,0c-0,-18.831 -5.968,-32.527 -17.904,-41.087c-8.68,-6.277 -19.576,-9.416 -32.688,-9.416l-45.437,0l0,100.864l45.437,0c13.293,0 24.188,-3.043 32.688,-9.13c11.936,-8.37 17.904,-22.114 17.904,-41.231Z" style="fill:#fff;fill-rule:nonzero;stroke:#000;stroke-width:5.56px;stroke-linecap:butt;stroke-miterlimit:2;"/><path d="M4767.64,3462.99l-77.989,-0l-0,103.146l-4.069,0l-0,-191.456l82.058,0l-0,4.28l-77.989,0l-0,79.892l77.989,0l-0,4.138Z" style="fill:#fff;fill-rule:nonzero;stroke:#000;stroke-width:5.56px;stroke-linecap:butt;stroke-miterlimit:2;"/><path d="M5136.25,3429.46c0,29.58 -12.975,47.222 -38.927,52.929l38.792,82.888l-3.663,1.57l-39.198,-83.602c-3.707,0.571 -7.55,0.856 -11.528,0.856l-45.438,0l0,82.032l-4.069,0l0,-191.456l49.507,0c13.834,0 25.453,3.377 34.857,10.129c13.112,9.416 19.667,24.301 19.667,44.654Zm-3.933,0c-0,-18.831 -5.968,-32.527 -17.904,-41.087c-8.68,-6.277 -19.576,-9.416 -32.687,-9.416l-45.438,0l0,100.864l45.438,0c13.292,0 24.188,-3.043 32.687,-9.13c11.936,-8.37 17.904,-22.114 17.904,-41.231Z" style="fill:#fff;fill-rule:nonzero;stroke:#000;stroke-width:5.56px;stroke-linecap:butt;stroke-miterlimit:2;"/><path d="M5480.99,3567.99l-82.058,-0l-0,-193.311l82.058,0l-0,4.28l-77.989,0l-0,79.892l57.915,0l0,4.138l-57.915,-0l-0,101.149l77.989,-0l-0,3.852Z" style="fill:#fff;fill-rule:nonzero;stroke:#000;stroke-width:5.56px;stroke-linecap:butt;stroke-miterlimit:2;"/><rect x="5745.58" y="3376.82" width="4.069" height="189.316" style="fill:#fff;fill-rule:nonzero;stroke:#000;stroke-width:5.56px;stroke-linecap:butt;stroke-miterlimit:2;"/></g></svg>